<?xml version="1.0" encoding="utf-8" standalone="no"?>
<!DOCTYPE svg PUBLIC "-//W3C//DTD SVG 1.1//EN"
  "http://www.w3.org/Graphics/SVG/1.1/DTD/svg11.dtd">
<svg xmlns:xlink="http://www.w3.org/1999/xlink" width="504pt" height="504pt" viewBox="0 0 504 504" xmlns="http://www.w3.org/2000/svg" version="1.1">
 <metadata>
  <rdf:RDF xmlns:dc="http://purl.org/dc/elements/1.1/" xmlns:cc="http://creativecommons.org/ns#" xmlns:rdf="http://www.w3.org/1999/02/22-rdf-syntax-ns#">
   <cc:Work>
    <dc:type rdf:resource="http://purl.org/dc/dcmitype/StillImage"/>
    <dc:date>2025-02-07T01:06:12.115036</dc:date>
    <dc:format>image/svg+xml</dc:format>
    <dc:creator>
     <cc:Agent>
      <dc:title>Matplotlib v3.5.2, https://matplotlib.org/</dc:title>
     </cc:Agent>
    </dc:creator>
   </cc:Work>
  </rdf:RDF>
 </metadata>
 <defs>
  <style type="text/css">*{stroke-linejoin: round; stroke-linecap: butt}</style>
 </defs>
 <g id="figure_1">
  <g id="patch_1">
   <path d="M 0 504 
L 504 504 
L 504 0 
L 0 0 
z
" style="fill: #ffffff"/>
  </g>
  <g id="axes_1">
   <g id="patch_2">
    <path d="M 35.28 473.76 
L 498.96 473.76 
L 498.96 5.04 
L 35.28 5.04 
z
" style="fill: #ffffff"/>
   </g>
   <g id="matplotlib.axis_1">
    <g id="xtick_1">
     <g id="line2d_1">
      <path d="M 35.28 473.76 
L 35.28 5.04 
" clip-path="url(#pc35b7114ac)" style="fill: none; stroke: #b0b0b0; stroke-width: 0.8; stroke-linecap: square"/>
     </g>
     <g id="line2d_2">
      <defs>
       <path id="mdb0a5746e4" d="M 0 0 
L 0 3.5 
" style="stroke: #000000; stroke-width: 0.8"/>
      </defs>
      <g>
       <use xlink:href="#mdb0a5746e4" x="35.28" y="473.76" style="stroke: #000000; stroke-width: 0.8"/>
      </g>
     </g>
     <g id="text_1">
      <!-- 0.1 -->
      <g transform="translate(27.328437 488.358437)scale(0.1 -0.1)">
       <defs>
        <path id="DejaVuSans-30" d="M 2034 4250 
Q 1547 4250 1301 3770 
Q 1056 3291 1056 2328 
Q 1056 1369 1301 889 
Q 1547 409 2034 409 
Q 2525 409 2770 889 
Q 3016 1369 3016 2328 
Q 3016 3291 2770 3770 
Q 2525 4250 2034 4250 
z
M 2034 4750 
Q 2819 4750 3233 4129 
Q 3647 3509 3647 2328 
Q 3647 1150 3233 529 
Q 2819 -91 2034 -91 
Q 1250 -91 836 529 
Q 422 1150 422 2328 
Q 422 3509 836 4129 
Q 1250 4750 2034 4750 
z
" transform="scale(0.015625)"/>
        <path id="DejaVuSans-2e" d="M 684 794 
L 1344 794 
L 1344 0 
L 684 0 
L 684 794 
z
" transform="scale(0.015625)"/>
        <path id="DejaVuSans-31" d="M 794 531 
L 1825 531 
L 1825 4091 
L 703 3866 
L 703 4441 
L 1819 4666 
L 2450 4666 
L 2450 531 
L 3481 531 
L 3481 0 
L 794 0 
L 794 531 
z
" transform="scale(0.015625)"/>
       </defs>
       <use xlink:href="#DejaVuSans-30"/>
       <use xlink:href="#DejaVuSans-2e" x="63.623047"/>
       <use xlink:href="#DejaVuSans-31" x="95.410156"/>
      </g>
     </g>
    </g>
    <g id="xtick_2">
     <g id="line2d_3">
      <path d="M 97.104 473.76 
L 97.104 5.04 
" clip-path="url(#pc35b7114ac)" style="fill: none; stroke: #b0b0b0; stroke-width: 0.8; stroke-linecap: square"/>
     </g>
     <g id="line2d_4">
      <g>
       <use xlink:href="#mdb0a5746e4" x="97.104" y="473.76" style="stroke: #000000; stroke-width: 0.8"/>
      </g>
     </g>
     <g id="text_2">
      <!-- 0.2 -->
      <g transform="translate(89.152437 488.358437)scale(0.1 -0.1)">
       <defs>
        <path id="DejaVuSans-32" d="M 1228 531 
L 3431 531 
L 3431 0 
L 469 0 
L 469 531 
Q 828 903 1448 1529 
Q 2069 2156 2228 2338 
Q 2531 2678 2651 2914 
Q 2772 3150 2772 3378 
Q 2772 3750 2511 3984 
Q 2250 4219 1831 4219 
Q 1534 4219 1204 4116 
Q 875 4013 500 3803 
L 500 4441 
Q 881 4594 1212 4672 
Q 1544 4750 1819 4750 
Q 2544 4750 2975 4387 
Q 3406 4025 3406 3419 
Q 3406 3131 3298 2873 
Q 3191 2616 2906 2266 
Q 2828 2175 2409 1742 
Q 1991 1309 1228 531 
z
" transform="scale(0.015625)"/>
       </defs>
       <use xlink:href="#DejaVuSans-30"/>
       <use xlink:href="#DejaVuSans-2e" x="63.623047"/>
       <use xlink:href="#DejaVuSans-32" x="95.410156"/>
      </g>
     </g>
    </g>
    <g id="xtick_3">
     <g id="line2d_5">
      <path d="M 158.928 473.76 
L 158.928 5.04 
" clip-path="url(#pc35b7114ac)" style="fill: none; stroke: #b0b0b0; stroke-width: 0.8; stroke-linecap: square"/>
     </g>
     <g id="line2d_6">
      <g>
       <use xlink:href="#mdb0a5746e4" x="158.928" y="473.76" style="stroke: #000000; stroke-width: 0.8"/>
      </g>
     </g>
     <g id="text_3">
      <!-- 0.3 -->
      <g transform="translate(150.976438 488.358437)scale(0.1 -0.1)">
       <defs>
        <path id="DejaVuSans-33" d="M 2597 2516 
Q 3050 2419 3304 2112 
Q 3559 1806 3559 1356 
Q 3559 666 3084 287 
Q 2609 -91 1734 -91 
Q 1441 -91 1130 -33 
Q 819 25 488 141 
L 488 750 
Q 750 597 1062 519 
Q 1375 441 1716 441 
Q 2309 441 2620 675 
Q 2931 909 2931 1356 
Q 2931 1769 2642 2001 
Q 2353 2234 1838 2234 
L 1294 2234 
L 1294 2753 
L 1863 2753 
Q 2328 2753 2575 2939 
Q 2822 3125 2822 3475 
Q 2822 3834 2567 4026 
Q 2313 4219 1838 4219 
Q 1578 4219 1281 4162 
Q 984 4106 628 3988 
L 628 4550 
Q 988 4650 1302 4700 
Q 1616 4750 1894 4750 
Q 2613 4750 3031 4423 
Q 3450 4097 3450 3541 
Q 3450 3153 3228 2886 
Q 3006 2619 2597 2516 
z
" transform="scale(0.015625)"/>
       </defs>
       <use xlink:href="#DejaVuSans-30"/>
       <use xlink:href="#DejaVuSans-2e" x="63.623047"/>
       <use xlink:href="#DejaVuSans-33" x="95.410156"/>
      </g>
     </g>
    </g>
    <g id="xtick_4">
     <g id="line2d_7">
      <path d="M 220.752 473.76 
L 220.752 5.04 
" clip-path="url(#pc35b7114ac)" style="fill: none; stroke: #b0b0b0; stroke-width: 0.8; stroke-linecap: square"/>
     </g>
     <g id="line2d_8">
      <g>
       <use xlink:href="#mdb0a5746e4" x="220.752" y="473.76" style="stroke: #000000; stroke-width: 0.8"/>
      </g>
     </g>
     <g id="text_4">
      <!-- 0.4 -->
      <g transform="translate(212.800437 488.358437)scale(0.1 -0.1)">
       <defs>
        <path id="DejaVuSans-34" d="M 2419 4116 
L 825 1625 
L 2419 1625 
L 2419 4116 
z
M 2253 4666 
L 3047 4666 
L 3047 1625 
L 3713 1625 
L 3713 1100 
L 3047 1100 
L 3047 0 
L 2419 0 
L 2419 1100 
L 313 1100 
L 313 1709 
L 2253 4666 
z
" transform="scale(0.015625)"/>
       </defs>
       <use xlink:href="#DejaVuSans-30"/>
       <use xlink:href="#DejaVuSans-2e" x="63.623047"/>
       <use xlink:href="#DejaVuSans-34" x="95.410156"/>
      </g>
     </g>
    </g>
    <g id="xtick_5">
     <g id="line2d_9">
      <path d="M 282.576 473.76 
L 282.576 5.04 
" clip-path="url(#pc35b7114ac)" style="fill: none; stroke: #b0b0b0; stroke-width: 0.8; stroke-linecap: square"/>
     </g>
     <g id="line2d_10">
      <g>
       <use xlink:href="#mdb0a5746e4" x="282.576" y="473.76" style="stroke: #000000; stroke-width: 0.8"/>
      </g>
     </g>
     <g id="text_5">
      <!-- 0.5 -->
      <g transform="translate(274.624437 488.358437)scale(0.1 -0.1)">
       <defs>
        <path id="DejaVuSans-35" d="M 691 4666 
L 3169 4666 
L 3169 4134 
L 1269 4134 
L 1269 2991 
Q 1406 3038 1543 3061 
Q 1681 3084 1819 3084 
Q 2600 3084 3056 2656 
Q 3513 2228 3513 1497 
Q 3513 744 3044 326 
Q 2575 -91 1722 -91 
Q 1428 -91 1123 -41 
Q 819 9 494 109 
L 494 744 
Q 775 591 1075 516 
Q 1375 441 1709 441 
Q 2250 441 2565 725 
Q 2881 1009 2881 1497 
Q 2881 1984 2565 2268 
Q 2250 2553 1709 2553 
Q 1456 2553 1204 2497 
Q 953 2441 691 2322 
L 691 4666 
z
" transform="scale(0.015625)"/>
       </defs>
       <use xlink:href="#DejaVuSans-30"/>
       <use xlink:href="#DejaVuSans-2e" x="63.623047"/>
       <use xlink:href="#DejaVuSans-35" x="95.410156"/>
      </g>
     </g>
    </g>
    <g id="xtick_6">
     <g id="line2d_11">
      <path d="M 344.4 473.76 
L 344.4 5.04 
" clip-path="url(#pc35b7114ac)" style="fill: none; stroke: #b0b0b0; stroke-width: 0.8; stroke-linecap: square"/>
     </g>
     <g id="line2d_12">
      <g>
       <use xlink:href="#mdb0a5746e4" x="344.4" y="473.76" style="stroke: #000000; stroke-width: 0.8"/>
      </g>
     </g>
     <g id="text_6">
      <!-- 0.6 -->
      <g transform="translate(336.448437 488.358437)scale(0.1 -0.1)">
       <defs>
        <path id="DejaVuSans-36" d="M 2113 2584 
Q 1688 2584 1439 2293 
Q 1191 2003 1191 1497 
Q 1191 994 1439 701 
Q 1688 409 2113 409 
Q 2538 409 2786 701 
Q 3034 994 3034 1497 
Q 3034 2003 2786 2293 
Q 2538 2584 2113 2584 
z
M 3366 4563 
L 3366 3988 
Q 3128 4100 2886 4159 
Q 2644 4219 2406 4219 
Q 1781 4219 1451 3797 
Q 1122 3375 1075 2522 
Q 1259 2794 1537 2939 
Q 1816 3084 2150 3084 
Q 2853 3084 3261 2657 
Q 3669 2231 3669 1497 
Q 3669 778 3244 343 
Q 2819 -91 2113 -91 
Q 1303 -91 875 529 
Q 447 1150 447 2328 
Q 447 3434 972 4092 
Q 1497 4750 2381 4750 
Q 2619 4750 2861 4703 
Q 3103 4656 3366 4563 
z
" transform="scale(0.015625)"/>
       </defs>
       <use xlink:href="#DejaVuSans-30"/>
       <use xlink:href="#DejaVuSans-2e" x="63.623047"/>
       <use xlink:href="#DejaVuSans-36" x="95.410156"/>
      </g>
     </g>
    </g>
    <g id="xtick_7">
     <g id="line2d_13">
      <path d="M 406.224 473.76 
L 406.224 5.04 
" clip-path="url(#pc35b7114ac)" style="fill: none; stroke: #b0b0b0; stroke-width: 0.8; stroke-linecap: square"/>
     </g>
     <g id="line2d_14">
      <g>
       <use xlink:href="#mdb0a5746e4" x="406.224" y="473.76" style="stroke: #000000; stroke-width: 0.8"/>
      </g>
     </g>
     <g id="text_7">
      <!-- 0.7 -->
      <g transform="translate(398.272437 488.358437)scale(0.1 -0.1)">
       <defs>
        <path id="DejaVuSans-37" d="M 525 4666 
L 3525 4666 
L 3525 4397 
L 1831 0 
L 1172 0 
L 2766 4134 
L 525 4134 
L 525 4666 
z
" transform="scale(0.015625)"/>
       </defs>
       <use xlink:href="#DejaVuSans-30"/>
       <use xlink:href="#DejaVuSans-2e" x="63.623047"/>
       <use xlink:href="#DejaVuSans-37" x="95.410156"/>
      </g>
     </g>
    </g>
    <g id="xtick_8">
     <g id="line2d_15">
      <path d="M 468.048 473.76 
L 468.048 5.04 
" clip-path="url(#pc35b7114ac)" style="fill: none; stroke: #b0b0b0; stroke-width: 0.8; stroke-linecap: square"/>
     </g>
     <g id="line2d_16">
      <g>
       <use xlink:href="#mdb0a5746e4" x="468.048" y="473.76" style="stroke: #000000; stroke-width: 0.8"/>
      </g>
     </g>
     <g id="text_8">
      <!-- 0.8 -->
      <g transform="translate(460.096437 488.358437)scale(0.1 -0.1)">
       <defs>
        <path id="DejaVuSans-38" d="M 2034 2216 
Q 1584 2216 1326 1975 
Q 1069 1734 1069 1313 
Q 1069 891 1326 650 
Q 1584 409 2034 409 
Q 2484 409 2743 651 
Q 3003 894 3003 1313 
Q 3003 1734 2745 1975 
Q 2488 2216 2034 2216 
z
M 1403 2484 
Q 997 2584 770 2862 
Q 544 3141 544 3541 
Q 544 4100 942 4425 
Q 1341 4750 2034 4750 
Q 2731 4750 3128 4425 
Q 3525 4100 3525 3541 
Q 3525 3141 3298 2862 
Q 3072 2584 2669 2484 
Q 3125 2378 3379 2068 
Q 3634 1759 3634 1313 
Q 3634 634 3220 271 
Q 2806 -91 2034 -91 
Q 1263 -91 848 271 
Q 434 634 434 1313 
Q 434 1759 690 2068 
Q 947 2378 1403 2484 
z
M 1172 3481 
Q 1172 3119 1398 2916 
Q 1625 2713 2034 2713 
Q 2441 2713 2670 2916 
Q 2900 3119 2900 3481 
Q 2900 3844 2670 4047 
Q 2441 4250 2034 4250 
Q 1625 4250 1398 4047 
Q 1172 3844 1172 3481 
z
" transform="scale(0.015625)"/>
       </defs>
       <use xlink:href="#DejaVuSans-30"/>
       <use xlink:href="#DejaVuSans-2e" x="63.623047"/>
       <use xlink:href="#DejaVuSans-38" x="95.410156"/>
      </g>
     </g>
    </g>
    <g id="text_9">
     <!-- bits per pixel -->
     <g transform="translate(228.186563 499.55625)scale(0.12 -0.12)">
      <defs>
       <path id="DejaVuSans-62" d="M 3116 1747 
Q 3116 2381 2855 2742 
Q 2594 3103 2138 3103 
Q 1681 3103 1420 2742 
Q 1159 2381 1159 1747 
Q 1159 1113 1420 752 
Q 1681 391 2138 391 
Q 2594 391 2855 752 
Q 3116 1113 3116 1747 
z
M 1159 2969 
Q 1341 3281 1617 3432 
Q 1894 3584 2278 3584 
Q 2916 3584 3314 3078 
Q 3713 2572 3713 1747 
Q 3713 922 3314 415 
Q 2916 -91 2278 -91 
Q 1894 -91 1617 61 
Q 1341 213 1159 525 
L 1159 0 
L 581 0 
L 581 4863 
L 1159 4863 
L 1159 2969 
z
" transform="scale(0.015625)"/>
       <path id="DejaVuSans-69" d="M 603 3500 
L 1178 3500 
L 1178 0 
L 603 0 
L 603 3500 
z
M 603 4863 
L 1178 4863 
L 1178 4134 
L 603 4134 
L 603 4863 
z
" transform="scale(0.015625)"/>
       <path id="DejaVuSans-74" d="M 1172 4494 
L 1172 3500 
L 2356 3500 
L 2356 3053 
L 1172 3053 
L 1172 1153 
Q 1172 725 1289 603 
Q 1406 481 1766 481 
L 2356 481 
L 2356 0 
L 1766 0 
Q 1100 0 847 248 
Q 594 497 594 1153 
L 594 3053 
L 172 3053 
L 172 3500 
L 594 3500 
L 594 4494 
L 1172 4494 
z
" transform="scale(0.015625)"/>
       <path id="DejaVuSans-73" d="M 2834 3397 
L 2834 2853 
Q 2591 2978 2328 3040 
Q 2066 3103 1784 3103 
Q 1356 3103 1142 2972 
Q 928 2841 928 2578 
Q 928 2378 1081 2264 
Q 1234 2150 1697 2047 
L 1894 2003 
Q 2506 1872 2764 1633 
Q 3022 1394 3022 966 
Q 3022 478 2636 193 
Q 2250 -91 1575 -91 
Q 1294 -91 989 -36 
Q 684 19 347 128 
L 347 722 
Q 666 556 975 473 
Q 1284 391 1588 391 
Q 1994 391 2212 530 
Q 2431 669 2431 922 
Q 2431 1156 2273 1281 
Q 2116 1406 1581 1522 
L 1381 1569 
Q 847 1681 609 1914 
Q 372 2147 372 2553 
Q 372 3047 722 3315 
Q 1072 3584 1716 3584 
Q 2034 3584 2315 3537 
Q 2597 3491 2834 3397 
z
" transform="scale(0.015625)"/>
       <path id="DejaVuSans-20" transform="scale(0.015625)"/>
       <path id="DejaVuSans-70" d="M 1159 525 
L 1159 -1331 
L 581 -1331 
L 581 3500 
L 1159 3500 
L 1159 2969 
Q 1341 3281 1617 3432 
Q 1894 3584 2278 3584 
Q 2916 3584 3314 3078 
Q 3713 2572 3713 1747 
Q 3713 922 3314 415 
Q 2916 -91 2278 -91 
Q 1894 -91 1617 61 
Q 1341 213 1159 525 
z
M 3116 1747 
Q 3116 2381 2855 2742 
Q 2594 3103 2138 3103 
Q 1681 3103 1420 2742 
Q 1159 2381 1159 1747 
Q 1159 1113 1420 752 
Q 1681 391 2138 391 
Q 2594 391 2855 752 
Q 3116 1113 3116 1747 
z
" transform="scale(0.015625)"/>
       <path id="DejaVuSans-65" d="M 3597 1894 
L 3597 1613 
L 953 1613 
Q 991 1019 1311 708 
Q 1631 397 2203 397 
Q 2534 397 2845 478 
Q 3156 559 3463 722 
L 3463 178 
Q 3153 47 2828 -22 
Q 2503 -91 2169 -91 
Q 1331 -91 842 396 
Q 353 884 353 1716 
Q 353 2575 817 3079 
Q 1281 3584 2069 3584 
Q 2775 3584 3186 3129 
Q 3597 2675 3597 1894 
z
M 3022 2063 
Q 3016 2534 2758 2815 
Q 2500 3097 2075 3097 
Q 1594 3097 1305 2825 
Q 1016 2553 972 2059 
L 3022 2063 
z
" transform="scale(0.015625)"/>
       <path id="DejaVuSans-72" d="M 2631 2963 
Q 2534 3019 2420 3045 
Q 2306 3072 2169 3072 
Q 1681 3072 1420 2755 
Q 1159 2438 1159 1844 
L 1159 0 
L 581 0 
L 581 3500 
L 1159 3500 
L 1159 2956 
Q 1341 3275 1631 3429 
Q 1922 3584 2338 3584 
Q 2397 3584 2469 3576 
Q 2541 3569 2628 3553 
L 2631 2963 
z
" transform="scale(0.015625)"/>
       <path id="DejaVuSans-78" d="M 3513 3500 
L 2247 1797 
L 3578 0 
L 2900 0 
L 1881 1375 
L 863 0 
L 184 0 
L 1544 1831 
L 300 3500 
L 978 3500 
L 1906 2253 
L 2834 3500 
L 3513 3500 
z
" transform="scale(0.015625)"/>
       <path id="DejaVuSans-6c" d="M 603 4863 
L 1178 4863 
L 1178 0 
L 603 0 
L 603 4863 
z
" transform="scale(0.015625)"/>
      </defs>
      <use xlink:href="#DejaVuSans-62"/>
      <use xlink:href="#DejaVuSans-69" x="63.476562"/>
      <use xlink:href="#DejaVuSans-74" x="91.259766"/>
      <use xlink:href="#DejaVuSans-73" x="130.46875"/>
      <use xlink:href="#DejaVuSans-20" x="182.568359"/>
      <use xlink:href="#DejaVuSans-70" x="214.355469"/>
      <use xlink:href="#DejaVuSans-65" x="277.832031"/>
      <use xlink:href="#DejaVuSans-72" x="339.355469"/>
      <use xlink:href="#DejaVuSans-20" x="380.46875"/>
      <use xlink:href="#DejaVuSans-70" x="412.255859"/>
      <use xlink:href="#DejaVuSans-69" x="475.732422"/>
      <use xlink:href="#DejaVuSans-78" x="503.515625"/>
      <use xlink:href="#DejaVuSans-65" x="559.570312"/>
      <use xlink:href="#DejaVuSans-6c" x="621.09375"/>
     </g>
    </g>
   </g>
   <g id="matplotlib.axis_2">
    <g id="ytick_1">
     <g id="line2d_17">
      <path d="M 35.28 446.508837 
L 498.96 446.508837 
" clip-path="url(#pc35b7114ac)" style="fill: none; stroke: #b0b0b0; stroke-width: 0.8; stroke-linecap: square"/>
     </g>
     <g id="line2d_18">
      <defs>
       <path id="m84e3980026" d="M 0 0 
L -3.5 0 
" style="stroke: #000000; stroke-width: 0.8"/>
      </defs>
      <g>
       <use xlink:href="#m84e3980026" x="35.28" y="446.508837" style="stroke: #000000; stroke-width: 0.8"/>
      </g>
     </g>
     <g id="text_10">
      <!-- 30 -->
      <g transform="translate(15.555 450.308056)scale(0.1 -0.1)">
       <use xlink:href="#DejaVuSans-33"/>
       <use xlink:href="#DejaVuSans-30" x="63.623047"/>
      </g>
     </g>
    </g>
    <g id="ytick_2">
     <g id="line2d_19">
      <path d="M 35.28 392.006512 
L 498.96 392.006512 
" clip-path="url(#pc35b7114ac)" style="fill: none; stroke: #b0b0b0; stroke-width: 0.8; stroke-linecap: square"/>
     </g>
     <g id="line2d_20">
      <g>
       <use xlink:href="#m84e3980026" x="35.28" y="392.006512" style="stroke: #000000; stroke-width: 0.8"/>
      </g>
     </g>
     <g id="text_11">
      <!-- 31 -->
      <g transform="translate(15.555 395.80573)scale(0.1 -0.1)">
       <use xlink:href="#DejaVuSans-33"/>
       <use xlink:href="#DejaVuSans-31" x="63.623047"/>
      </g>
     </g>
    </g>
    <g id="ytick_3">
     <g id="line2d_21">
      <path d="M 35.28 337.504186 
L 498.96 337.504186 
" clip-path="url(#pc35b7114ac)" style="fill: none; stroke: #b0b0b0; stroke-width: 0.8; stroke-linecap: square"/>
     </g>
     <g id="line2d_22">
      <g>
       <use xlink:href="#m84e3980026" x="35.28" y="337.504186" style="stroke: #000000; stroke-width: 0.8"/>
      </g>
     </g>
     <g id="text_12">
      <!-- 32 -->
      <g transform="translate(15.555 341.303405)scale(0.1 -0.1)">
       <use xlink:href="#DejaVuSans-33"/>
       <use xlink:href="#DejaVuSans-32" x="63.623047"/>
      </g>
     </g>
    </g>
    <g id="ytick_4">
     <g id="line2d_23">
      <path d="M 35.28 283.00186 
L 498.96 283.00186 
" clip-path="url(#pc35b7114ac)" style="fill: none; stroke: #b0b0b0; stroke-width: 0.8; stroke-linecap: square"/>
     </g>
     <g id="line2d_24">
      <g>
       <use xlink:href="#m84e3980026" x="35.28" y="283.00186" style="stroke: #000000; stroke-width: 0.8"/>
      </g>
     </g>
     <g id="text_13">
      <!-- 33 -->
      <g transform="translate(15.555 286.801079)scale(0.1 -0.1)">
       <use xlink:href="#DejaVuSans-33"/>
       <use xlink:href="#DejaVuSans-33" x="63.623047"/>
      </g>
     </g>
    </g>
    <g id="ytick_5">
     <g id="line2d_25">
      <path d="M 35.28 228.499535 
L 498.96 228.499535 
" clip-path="url(#pc35b7114ac)" style="fill: none; stroke: #b0b0b0; stroke-width: 0.8; stroke-linecap: square"/>
     </g>
     <g id="line2d_26">
      <g>
       <use xlink:href="#m84e3980026" x="35.28" y="228.499535" style="stroke: #000000; stroke-width: 0.8"/>
      </g>
     </g>
     <g id="text_14">
      <!-- 34 -->
      <g transform="translate(15.555 232.298754)scale(0.1 -0.1)">
       <use xlink:href="#DejaVuSans-33"/>
       <use xlink:href="#DejaVuSans-34" x="63.623047"/>
      </g>
     </g>
    </g>
    <g id="ytick_6">
     <g id="line2d_27">
      <path d="M 35.28 173.997209 
L 498.96 173.997209 
" clip-path="url(#pc35b7114ac)" style="fill: none; stroke: #b0b0b0; stroke-width: 0.8; stroke-linecap: square"/>
     </g>
     <g id="line2d_28">
      <g>
       <use xlink:href="#m84e3980026" x="35.28" y="173.997209" style="stroke: #000000; stroke-width: 0.8"/>
      </g>
     </g>
     <g id="text_15">
      <!-- 35 -->
      <g transform="translate(15.555 177.796428)scale(0.1 -0.1)">
       <use xlink:href="#DejaVuSans-33"/>
       <use xlink:href="#DejaVuSans-35" x="63.623047"/>
      </g>
     </g>
    </g>
    <g id="ytick_7">
     <g id="line2d_29">
      <path d="M 35.28 119.494884 
L 498.96 119.494884 
" clip-path="url(#pc35b7114ac)" style="fill: none; stroke: #b0b0b0; stroke-width: 0.8; stroke-linecap: square"/>
     </g>
     <g id="line2d_30">
      <g>
       <use xlink:href="#m84e3980026" x="35.28" y="119.494884" style="stroke: #000000; stroke-width: 0.8"/>
      </g>
     </g>
     <g id="text_16">
      <!-- 36 -->
      <g transform="translate(15.555 123.294102)scale(0.1 -0.1)">
       <use xlink:href="#DejaVuSans-33"/>
       <use xlink:href="#DejaVuSans-36" x="63.623047"/>
      </g>
     </g>
    </g>
    <g id="ytick_8">
     <g id="line2d_31">
      <path d="M 35.28 64.992558 
L 498.96 64.992558 
" clip-path="url(#pc35b7114ac)" style="fill: none; stroke: #b0b0b0; stroke-width: 0.8; stroke-linecap: square"/>
     </g>
     <g id="line2d_32">
      <g>
       <use xlink:href="#m84e3980026" x="35.28" y="64.992558" style="stroke: #000000; stroke-width: 0.8"/>
      </g>
     </g>
     <g id="text_17">
      <!-- 37 -->
      <g transform="translate(15.555 68.791777)scale(0.1 -0.1)">
       <use xlink:href="#DejaVuSans-33"/>
       <use xlink:href="#DejaVuSans-37" x="63.623047"/>
      </g>
     </g>
    </g>
    <g id="ytick_9">
     <g id="line2d_33">
      <path d="M 35.28 10.490233 
L 498.96 10.490233 
" clip-path="url(#pc35b7114ac)" style="fill: none; stroke: #b0b0b0; stroke-width: 0.8; stroke-linecap: square"/>
     </g>
     <g id="line2d_34">
      <g>
       <use xlink:href="#m84e3980026" x="35.28" y="10.490233" style="stroke: #000000; stroke-width: 0.8"/>
      </g>
     </g>
     <g id="text_18">
      <!-- 38 -->
      <g transform="translate(15.555 14.289451)scale(0.1 -0.1)">
       <use xlink:href="#DejaVuSans-33"/>
       <use xlink:href="#DejaVuSans-38" x="63.623047"/>
      </g>
     </g>
    </g>
    <g id="text_19">
     <!-- PSNR (dB) -->
     <g transform="translate(13.059375 269.999062)rotate(-90)scale(0.12 -0.12)">
      <defs>
       <path id="DejaVuSans-50" d="M 1259 4147 
L 1259 2394 
L 2053 2394 
Q 2494 2394 2734 2622 
Q 2975 2850 2975 3272 
Q 2975 3691 2734 3919 
Q 2494 4147 2053 4147 
L 1259 4147 
z
M 628 4666 
L 2053 4666 
Q 2838 4666 3239 4311 
Q 3641 3956 3641 3272 
Q 3641 2581 3239 2228 
Q 2838 1875 2053 1875 
L 1259 1875 
L 1259 0 
L 628 0 
L 628 4666 
z
" transform="scale(0.015625)"/>
       <path id="DejaVuSans-53" d="M 3425 4513 
L 3425 3897 
Q 3066 4069 2747 4153 
Q 2428 4238 2131 4238 
Q 1616 4238 1336 4038 
Q 1056 3838 1056 3469 
Q 1056 3159 1242 3001 
Q 1428 2844 1947 2747 
L 2328 2669 
Q 3034 2534 3370 2195 
Q 3706 1856 3706 1288 
Q 3706 609 3251 259 
Q 2797 -91 1919 -91 
Q 1588 -91 1214 -16 
Q 841 59 441 206 
L 441 856 
Q 825 641 1194 531 
Q 1563 422 1919 422 
Q 2459 422 2753 634 
Q 3047 847 3047 1241 
Q 3047 1584 2836 1778 
Q 2625 1972 2144 2069 
L 1759 2144 
Q 1053 2284 737 2584 
Q 422 2884 422 3419 
Q 422 4038 858 4394 
Q 1294 4750 2059 4750 
Q 2388 4750 2728 4690 
Q 3069 4631 3425 4513 
z
" transform="scale(0.015625)"/>
       <path id="DejaVuSans-4e" d="M 628 4666 
L 1478 4666 
L 3547 763 
L 3547 4666 
L 4159 4666 
L 4159 0 
L 3309 0 
L 1241 3903 
L 1241 0 
L 628 0 
L 628 4666 
z
" transform="scale(0.015625)"/>
       <path id="DejaVuSans-52" d="M 2841 2188 
Q 3044 2119 3236 1894 
Q 3428 1669 3622 1275 
L 4263 0 
L 3584 0 
L 2988 1197 
Q 2756 1666 2539 1819 
Q 2322 1972 1947 1972 
L 1259 1972 
L 1259 0 
L 628 0 
L 628 4666 
L 2053 4666 
Q 2853 4666 3247 4331 
Q 3641 3997 3641 3322 
Q 3641 2881 3436 2590 
Q 3231 2300 2841 2188 
z
M 1259 4147 
L 1259 2491 
L 2053 2491 
Q 2509 2491 2742 2702 
Q 2975 2913 2975 3322 
Q 2975 3731 2742 3939 
Q 2509 4147 2053 4147 
L 1259 4147 
z
" transform="scale(0.015625)"/>
       <path id="DejaVuSans-28" d="M 1984 4856 
Q 1566 4138 1362 3434 
Q 1159 2731 1159 2009 
Q 1159 1288 1364 580 
Q 1569 -128 1984 -844 
L 1484 -844 
Q 1016 -109 783 600 
Q 550 1309 550 2009 
Q 550 2706 781 3412 
Q 1013 4119 1484 4856 
L 1984 4856 
z
" transform="scale(0.015625)"/>
       <path id="DejaVuSans-64" d="M 2906 2969 
L 2906 4863 
L 3481 4863 
L 3481 0 
L 2906 0 
L 2906 525 
Q 2725 213 2448 61 
Q 2172 -91 1784 -91 
Q 1150 -91 751 415 
Q 353 922 353 1747 
Q 353 2572 751 3078 
Q 1150 3584 1784 3584 
Q 2172 3584 2448 3432 
Q 2725 3281 2906 2969 
z
M 947 1747 
Q 947 1113 1208 752 
Q 1469 391 1925 391 
Q 2381 391 2643 752 
Q 2906 1113 2906 1747 
Q 2906 2381 2643 2742 
Q 2381 3103 1925 3103 
Q 1469 3103 1208 2742 
Q 947 2381 947 1747 
z
" transform="scale(0.015625)"/>
       <path id="DejaVuSans-42" d="M 1259 2228 
L 1259 519 
L 2272 519 
Q 2781 519 3026 730 
Q 3272 941 3272 1375 
Q 3272 1813 3026 2020 
Q 2781 2228 2272 2228 
L 1259 2228 
z
M 1259 4147 
L 1259 2741 
L 2194 2741 
Q 2656 2741 2882 2914 
Q 3109 3088 3109 3444 
Q 3109 3797 2882 3972 
Q 2656 4147 2194 4147 
L 1259 4147 
z
M 628 4666 
L 2241 4666 
Q 2963 4666 3353 4366 
Q 3744 4066 3744 3513 
Q 3744 3084 3544 2831 
Q 3344 2578 2956 2516 
Q 3422 2416 3680 2098 
Q 3938 1781 3938 1306 
Q 3938 681 3513 340 
Q 3088 0 2303 0 
L 628 0 
L 628 4666 
z
" transform="scale(0.015625)"/>
       <path id="DejaVuSans-29" d="M 513 4856 
L 1013 4856 
Q 1481 4119 1714 3412 
Q 1947 2706 1947 2009 
Q 1947 1309 1714 600 
Q 1481 -109 1013 -844 
L 513 -844 
Q 928 -128 1133 580 
Q 1338 1288 1338 2009 
Q 1338 2731 1133 3434 
Q 928 4138 513 4856 
z
" transform="scale(0.015625)"/>
      </defs>
      <use xlink:href="#DejaVuSans-50"/>
      <use xlink:href="#DejaVuSans-53" x="60.302734"/>
      <use xlink:href="#DejaVuSans-4e" x="123.779297"/>
      <use xlink:href="#DejaVuSans-52" x="198.583984"/>
      <use xlink:href="#DejaVuSans-20" x="268.066406"/>
      <use xlink:href="#DejaVuSans-28" x="299.853516"/>
      <use xlink:href="#DejaVuSans-64" x="338.867188"/>
      <use xlink:href="#DejaVuSans-42" x="402.34375"/>
      <use xlink:href="#DejaVuSans-29" x="470.947266"/>
     </g>
    </g>
   </g>
   <g id="line2d_35">
    <path d="M 52.109659 505 
L 53.459258 501.993046 
L 56.303879 495.817246 
L 59.249643 489.583947 
L 62.300148 483.29115 
L 65.459118 476.936859 
L 68.730409 470.519075 
L 72.118015 464.0358 
L 75.626071 457.485038 
L 79.258861 450.864789 
L 83.02082 444.173057 
L 86.91654 437.407843 
L 90.950778 430.56715 
L 95.128458 423.648981 
L 99.454681 416.651337 
L 103.934729 409.57222 
L 108.57407 402.408688 
L 113.37837 395.145266 
L 118.353492 387.778221 
L 123.505511 380.308994 
L 128.840718 372.739028 
L 134.365624 365.069762 
L 140.086976 357.302638 
L 146.011758 349.439097 
L 152.147203 341.480581 
L 158.500802 333.42853 
L 165.080311 325.284386 
L 171.893763 317.049591 
L 178.949477 308.725585 
L 186.256066 300.313809 
L 193.82245 291.815705 
L 201.657867 283.232715 
L 209.771882 274.566278 
L 218.174401 265.817837 
L 226.875683 256.988832 
L 235.886351 248.080706 
L 245.217405 239.094898 
L 254.880236 229.992427 
L 264.886642 220.735116 
L 275.248839 211.330602 
L 285.979477 201.786539 
L 297.091657 192.11058 
L 308.598945 182.310379 
L 320.51539 172.39359 
L 332.85554 162.367866 
L 345.634459 152.240863 
L 358.86775 142.020232 
L 372.571568 131.713628 
L 386.762643 121.328705 
L 401.4583 110.873117 
L 416.67648 100.354517 
L 432.435763 89.780559 
L 448.755387 79.158897 
L 465.655277 68.497184 
L 483.156065 57.778444 
L 501.279116 46.959111 
L 505 44.794256 
" clip-path="url(#pc35b7114ac)" style="fill: none; stroke: #1f77b4; stroke-width: 1.5; stroke-linecap: square"/>
   </g>
   <g id="line2d_36">
    <path d="M 69.2832 442.693674 
L 70.978873 439.528368 
L 72.70455 436.341151 
L 74.460764 433.130708 
L 76.248054 429.89572 
L 78.066971 426.634871 
L 79.918073 423.346844 
L 81.801931 420.030322 
L 83.719124 416.683987 
L 85.670241 413.306522 
L 87.655884 409.89661 
L 89.676664 406.452935 
L 91.733201 402.974179 
L 93.826129 399.459202 
L 95.956091 395.912772 
L 98.123743 392.338048 
L 100.329752 388.735733 
L 102.574797 385.10653 
L 104.859568 381.451142 
L 107.184768 377.770271 
L 109.551113 374.064621 
L 111.959331 370.334893 
L 114.410162 366.581792 
L 116.904361 362.80602 
L 119.442695 359.008279 
L 122.025945 355.189272 
L 124.654907 351.349703 
L 127.330387 347.490273 
L 130.053211 343.611687 
L 132.824216 339.714646 
L 135.644253 335.799854 
L 138.514192 331.868013 
L 141.434914 327.919826 
L 144.407319 323.955996 
L 147.432321 319.977226 
L 150.510851 315.984218 
L 153.643855 311.977676 
L 156.832299 307.958302 
L 160.077162 303.926948 
L 163.379444 299.885365 
L 166.740159 295.832588 
L 170.160343 291.766985 
L 173.641048 287.686922 
L 177.183344 283.590767 
L 180.788321 279.476886 
L 184.457089 275.343645 
L 188.190775 271.189412 
L 191.99053 267.012554 
L 195.857522 262.811437 
L 199.792941 258.584428 
L 203.797998 254.329894 
L 207.873924 250.046202 
L 212.021974 245.731718 
L 216.243425 241.384809 
L 220.539574 237.003843 
L 224.911745 232.587185 
L 229.361281 228.133203 
L 233.889553 223.640264 
L 238.497952 219.106734 
L 243.187898 214.53098 
L 247.960833 209.911161 
L 252.818225 205.231817 
L 257.76157 200.487094 
L 262.792387 195.681185 
L 267.912226 190.818278 
L 273.12266 185.902563 
L 278.425294 180.938231 
L 283.821759 175.92947 
L 289.313714 170.880472 
L 294.90285 165.795426 
L 300.590887 160.678521 
L 306.379574 155.533949 
L 312.270692 150.365898 
L 318.266054 145.178559 
L 324.367505 139.976121 
L 330.576922 134.762774 
L 336.896215 129.542709 
L 343.327329 124.320115 
L 349.872241 119.099182 
L 356.532967 113.8841 
L 363.311555 108.675246 
L 370.210091 103.453052 
L 377.230697 98.214173 
L 384.375534 92.958686 
L 391.646799 87.686668 
L 399.04673 82.398195 
L 406.577604 77.093346 
L 414.241737 71.772197 
L 422.041488 66.434826 
L 429.979256 61.081308 
L 438.057484 55.711722 
L 446.278658 50.326144 
L 454.645305 44.924652 
L 463.160002 39.507322 
L 471.825367 34.074232 
L 480.644066 28.625458 
L 489.618813 23.161078 
L 498.75237 17.681168 
L 505 13.987533 
" clip-path="url(#pc35b7114ac)" style="fill: none; stroke-dasharray: 1.5,2.475; stroke-dashoffset: 0; stroke: #ff7f0e; stroke-width: 1.5"/>
   </g>
   <g id="line2d_37">
    <path d="M 53.456256 466.129674 
L 54.984099 462.861639 
L 56.54112 459.56878 
L 58.127877 456.25137 
L 59.744939 452.909684 
L 61.392882 449.543994 
L 63.072298 446.154576 
L 64.783788 442.741703 
L 66.527964 439.305649 
L 68.305449 435.846687 
L 70.116882 432.365092 
L 71.962908 428.861138 
L 73.844191 425.335098 
L 75.761402 421.787246 
L 77.715227 418.217856 
L 79.706367 414.627203 
L 81.735534 411.015559 
L 83.803453 407.383199 
L 85.910866 403.730397 
L 88.058526 400.057427 
L 90.247202 396.364562 
L 92.477677 392.652076 
L 94.75075 388.920243 
L 97.067233 385.169338 
L 99.427957 381.398148 
L 101.833766 377.604392 
L 104.285521 373.787617 
L 106.7841 369.947384 
L 109.330396 366.083257 
L 111.925322 362.194797 
L 114.569805 358.281567 
L 117.264793 354.343129 
L 120.011249 350.379044 
L 122.810157 346.388875 
L 125.662519 342.372185 
L 128.569355 338.328534 
L 131.531705 334.257487 
L 134.550631 330.158604 
L 137.627211 326.031448 
L 140.762549 321.875581 
L 143.957765 317.690565 
L 147.214002 313.475963 
L 150.532428 309.231336 
L 153.914229 304.956247 
L 157.360615 300.650258 
L 160.87282 296.311039 
L 164.452102 291.932785 
L 168.09974 287.515916 
L 171.817041 283.06131 
L 175.605334 278.569845 
L 179.465977 274.042403 
L 183.40035 269.479862 
L 187.409861 264.883101 
L 191.495946 260.252999 
L 195.660067 255.590437 
L 199.903714 250.896293 
L 204.228406 246.171447 
L 208.635691 241.416779 
L 213.127146 236.633166 
L 217.704379 231.82149 
L 222.369028 226.982629 
L 227.122762 222.117462 
L 231.967283 217.22687 
L 236.904325 212.31173 
L 241.935653 207.372924 
L 247.06307 202.407317 
L 252.288411 197.401855 
L 257.613544 192.356587 
L 263.040377 187.272796 
L 268.570852 182.151764 
L 274.206947 176.994777 
L 279.95068 171.803116 
L 285.804107 166.578067 
L 291.769323 161.320912 
L 297.848462 156.032935 
L 304.0437 150.715419 
L 310.357255 145.369648 
L 316.791386 139.996906 
L 323.348396 134.598476 
L 330.030631 129.175641 
L 336.840483 123.729685 
L 343.78039 118.261892 
L 350.852835 112.773546 
L 358.06035 107.263846 
L 365.405513 101.722942 
L 372.890954 96.149732 
L 380.519352 90.54462 
L 388.293436 84.908011 
L 396.21599 79.24031 
L 404.289849 73.541923 
L 412.517902 67.813254 
L 420.903094 62.05471 
L 429.448426 56.266694 
L 438.156957 50.449612 
L 447.031803 44.603869 
L 456.076141 38.729871 
L 465.293207 32.828022 
L 474.6863 26.898728 
L 484.258783 20.942393 
L 494.01408 14.959423 
" clip-path="url(#pc35b7114ac)" style="fill: none; stroke-dasharray: 1.5,2.475; stroke-dashoffset: 0; stroke: #2ca02c; stroke-width: 1.5"/>
   </g>
   <g id="line2d_38">
    <path d="M 44.500124 491.354836 
L 45.950086 487.700337 
L 47.42964 484.020867 
L 48.939392 480.31661 
L 50.479956 476.587748 
L 52.051962 472.834463 
L 53.656052 469.056938 
L 55.29288 465.255354 
L 56.963115 461.429895 
L 58.667438 457.580742 
L 60.406545 453.708078 
L 62.181146 449.812086 
L 63.991965 445.892947 
L 65.839742 441.950843 
L 67.725231 437.985958 
L 69.649201 433.998473 
L 71.612439 429.988572 
L 73.615744 425.956435 
L 75.659936 421.902246 
L 77.745848 417.826186 
L 79.874333 413.728439 
L 82.046258 409.609186 
L 84.262511 405.468611 
L 86.523996 401.306894 
L 88.831636 397.124218 
L 91.186374 392.920767 
L 93.58917 388.696722 
L 96.041006 384.452265 
L 98.542882 380.187579 
L 101.095819 375.902846 
L 103.70086 371.598248 
L 106.359069 367.273968 
L 109.071529 362.930188 
L 111.839349 358.567091 
L 114.663659 354.184859 
L 117.54561 349.783673 
L 120.486381 345.363717 
L 123.48717 340.924952 
L 126.549203 336.466878 
L 129.673731 331.988949 
L 132.862027 327.490622 
L 136.115395 322.97135 
L 139.435162 318.43059 
L 142.822683 313.867797 
L 146.279341 309.282425 
L 149.806547 304.673931 
L 153.405741 300.041769 
L 157.078392 295.385394 
L 160.825999 290.704262 
L 164.650092 285.997828 
L 168.552232 281.265547 
L 172.534013 276.506875 
L 176.597059 271.721266 
L 180.743028 266.908177 
L 184.973615 262.067061 
L 189.290544 257.197374 
L 193.695579 252.298572 
L 198.190518 247.37011 
L 202.777196 242.411443 
L 207.457484 237.422026 
L 212.233294 232.401314 
L 217.106575 227.348764 
L 222.079316 222.263828 
L 227.153548 217.145964 
L 232.331341 211.994627 
L 237.614809 206.80927 
L 243.00611 201.589351 
L 248.507443 196.334324 
L 254.121054 191.043643 
L 259.849236 185.716765 
L 265.694325 180.353145 
L 271.658709 174.952238 
L 277.744822 169.511 
L 283.955149 164.016785 
L 290.292223 158.468699 
L 296.758634 152.867671 
L 303.357019 147.214631 
L 310.090073 141.510508 
L 316.960543 135.75623 
L 323.971236 129.952728 
L 331.125011 124.100931 
L 338.424791 118.201767 
L 345.873554 112.256166 
L 353.474341 106.265058 
L 361.230255 100.229371 
L 369.144462 94.150035 
L 377.220192 88.027979 
L 385.460742 81.864133 
L 393.869477 75.659424 
L 402.449828 69.414784 
L 411.205298 63.131141 
L 420.139461 56.809424 
L 429.255964 50.450563 
L 438.558529 44.055487 
L 448.050953 37.625125 
L 457.737111 31.160406 
L 467.620957 24.66226 
L 477.706525 18.131615 
L 487.997933 11.569402 
L 498.499381 4.976549 
" clip-path="url(#pc35b7114ac)" style="fill: none; stroke-dasharray: 5.55,2.4; stroke-dashoffset: 0; stroke: #d62728; stroke-width: 1.5"/>
   </g>
   <g id="line2d_39">
    <path d="M 40.489474 473.222293 
L 41.86384 469.678618 
L 43.266385 466.108218 
L 44.697685 462.511317 
L 46.158332 458.888142 
L 47.648925 455.238918 
L 49.170079 451.563871 
L 50.722422 447.863225 
L 52.306591 444.137208 
L 53.92324 440.386043 
L 55.573035 436.609957 
L 57.256655 432.809176 
L 58.974794 428.983924 
L 60.728159 425.134427 
L 62.517473 421.260911 
L 64.343473 417.363601 
L 66.20691 413.442723 
L 68.108553 409.498503 
L 70.049185 405.531165 
L 72.029605 401.540935 
L 74.050629 397.52804 
L 76.113089 393.492704 
L 78.217836 389.435153 
L 80.365735 385.355612 
L 82.557672 381.254307 
L 84.79455 377.131464 
L 87.07729 372.987308 
L 89.406832 368.822064 
L 91.784135 364.635959 
L 94.21018 360.429217 
L 96.685966 356.202064 
L 99.212511 351.954726 
L 101.790858 347.687427 
L 104.422068 343.400395 
L 107.107224 339.093854 
L 109.847434 334.768029 
L 112.643825 330.423147 
L 115.49755 326.059227 
L 118.409783 321.672838 
L 121.381726 317.262457 
L 124.414601 312.827779 
L 127.509658 308.368501 
L 130.668172 303.884317 
L 133.891445 299.374923 
L 137.180803 294.840014 
L 140.537601 290.279286 
L 143.963223 285.692434 
L 147.45908 281.079154 
L 151.026611 276.439142 
L 154.667286 271.772091 
L 158.382605 267.077699 
L 162.174097 262.35566 
L 166.043326 257.60567 
L 169.991884 252.827424 
L 174.021398 248.020619 
L 178.133528 243.184948 
L 182.329968 238.320108 
L 186.612446 233.425794 
L 190.982726 228.501702 
L 195.442609 223.547526 
L 199.993931 218.562963 
L 204.638568 213.547708 
L 209.378432 208.501456 
L 214.215477 203.423903 
L 219.151693 198.314744 
L 224.189116 193.173675 
L 229.329819 188.000391 
L 234.57592 182.794587 
L 239.929581 177.55596 
L 245.393006 172.284203 
L 250.968445 166.979014 
L 256.658197 161.640087 
L 262.464603 156.263535 
L 268.390057 150.837159 
L 274.436998 145.360689 
L 280.607918 139.834933 
L 286.905358 134.260696 
L 293.331913 128.638784 
L 299.890229 122.970004 
L 306.583009 117.255162 
L 313.413008 111.495063 
L 320.383041 105.690515 
L 327.495978 99.842322 
L 334.75475 93.951292 
L 342.162346 88.01823 
L 349.721817 82.043942 
L 357.436278 76.029235 
L 365.308907 69.974915 
L 373.342945 63.881788 
L 381.541703 57.75066 
L 389.908557 51.582338 
L 398.446954 45.377626 
L 407.160411 39.137332 
L 416.052518 32.862262 
L 425.126937 26.553221 
L 434.387406 20.211016 
L 443.837739 13.836453 
L 453.481829 7.430339 
L 463.32365 0.993479 
L 466.419726 -1 
" clip-path="url(#pc35b7114ac)" style="fill: none; stroke-dasharray: 9.6,2.4,1.5,2.4; stroke-dashoffset: 0; stroke: #9467bd; stroke-width: 1.5"/>
   </g>
   <g id="line2d_40">
    <path d="M 36.318734 459.075945 
L 37.564332 455.779069 
L 38.83461 452.453813 
L 40.130059 449.100457 
L 41.451177 445.719278 
L 42.798472 442.310555 
L 44.172463 438.874565 
L 45.573679 435.411588 
L 47.002659 431.921901 
L 48.459954 428.405782 
L 49.946125 424.863511 
L 51.461744 421.295365 
L 53.007394 417.701622 
L 54.58367 414.082562 
L 56.19118 410.438461 
L 57.830541 406.769598 
L 59.502386 403.076252 
L 61.207358 399.358701 
L 62.946113 395.617223 
L 64.719321 391.852097 
L 66.527664 388.0636 
L 68.371839 384.252011 
L 70.252555 380.417608 
L 72.170537 376.560669 
L 74.126522 372.681474 
L 76.121265 368.780299 
L 78.155533 364.857423 
L 80.230109 360.913125 
L 82.345791 356.947683 
L 84.503395 352.961375 
L 86.703751 348.95448 
L 88.947706 344.927274 
L 91.236124 340.880038 
L 93.569887 336.813049 
L 95.949891 332.726585 
L 98.377054 328.620925 
L 100.852311 324.496347 
L 103.376614 320.35313 
L 105.950934 316.188836 
L 108.576264 311.993577 
L 111.253613 307.766657 
L 113.984013 303.50835 
L 116.768515 299.218925 
L 119.60819 294.898655 
L 122.504132 290.547813 
L 125.457456 286.166669 
L 128.469299 281.755495 
L 131.540821 277.314564 
L 134.673203 272.844147 
L 137.867652 268.344515 
L 141.125397 263.815942 
L 144.447694 259.258697 
L 147.83582 254.673055 
L 151.29108 250.059285 
L 154.814805 245.41766 
L 158.408351 240.748452 
L 162.073102 236.051932 
L 165.810468 231.328373 
L 169.621888 226.578046 
L 173.50883 221.801223 
L 177.47279 216.998176 
L 181.515295 212.169176 
L 185.637899 207.314496 
L 189.842192 202.434407 
L 194.12979 197.529181 
L 198.502345 192.59909 
L 202.961541 187.644406 
L 207.509094 182.665399 
L 212.146754 177.662344 
L 216.876308 172.63551 
L 221.699576 167.58517 
L 226.618415 162.509838 
L 231.634718 157.397778 
L 236.750417 152.247172 
L 241.967482 147.058505 
L 247.287921 141.832261 
L 252.713781 136.568927 
L 258.247153 131.268988 
L 263.890166 125.93293 
L 269.644993 120.561237 
L 275.51385 115.154394 
L 281.498995 109.712889 
L 287.602733 104.237204 
L 293.827415 98.727827 
L 300.175435 93.185242 
L 306.649239 87.609935 
L 313.251319 82.002391 
L 319.984215 76.363095 
L 326.850522 70.692533 
L 333.852881 64.99119 
L 340.993989 59.259552 
L 348.276595 53.498104 
L 355.703502 47.70733 
L 363.27757 41.887718 
L 371.001716 36.039751 
L 378.878912 30.163915 
L 386.912191 24.260696 
L 395.104646 18.330579 
L 403.459431 12.37405 
L 411.979762 6.391593 
" clip-path="url(#pc35b7114ac)" style="fill: none; stroke-dasharray: 5.55,2.4; stroke-dashoffset: 0; stroke: #8c564b; stroke-width: 1.5"/>
   </g>
   <g id="line2d_41">
    <path d="M 35.817183 451.609226 
L 37.052536 448.30708 
L 38.31236 444.976695 
L 39.597142 441.618346 
L 40.907374 438.232309 
L 42.243561 434.818861 
L 43.606218 431.378277 
L 44.995869 427.910832 
L 46.413048 424.416802 
L 47.8583 420.896464 
L 49.332183 417.350093 
L 50.835263 413.777965 
L 52.368118 410.180356 
L 53.931339 406.557541 
L 55.525527 402.909796 
L 57.151294 399.237398 
L 58.809268 395.540621 
L 60.500086 391.819742 
L 62.224398 388.075037 
L 63.982868 384.30678 
L 65.776172 380.515249 
L 67.605002 376.700719 
L 69.47006 372.863465 
L 71.372063 369.003764 
L 73.311745 365.121892 
L 75.289852 361.218123 
L 77.307144 357.292734 
L 79.364398 353.346001 
L 81.462405 349.378199 
L 83.601973 345.389605 
L 85.783925 341.380493 
L 88.009101 337.351141 
L 90.278356 333.301823 
L 92.592565 329.232816 
L 94.952618 325.144395 
L 97.359422 321.036836 
L 99.813904 316.910415 
L 102.317009 312.765408 
L 104.869699 308.598466 
L 107.472957 304.400727 
L 110.127785 300.171972 
L 112.835204 295.912426 
L 115.596255 291.622311 
L 118.412003 287.30185 
L 121.283529 282.951265 
L 124.211939 278.57078 
L 127.19836 274.160616 
L 130.243941 269.720998 
L 133.349853 265.252147 
L 136.517293 260.754287 
L 139.747479 256.227641 
L 143.041653 251.67243 
L 146.401084 247.088878 
L 149.827064 242.477208 
L 153.320911 237.837642 
L 156.88397 233.170404 
L 160.517612 228.475716 
L 164.223235 223.753801 
L 168.002266 219.004881 
L 171.856157 214.229179 
L 175.786393 209.426919 
L 179.794485 204.598323 
L 183.881976 199.743614 
L 188.050439 194.863015 
L 192.301478 189.956747 
L 196.636728 185.025035 
L 201.057858 180.068101 
L 205.566569 175.086168 
L 210.164595 170.079459 
L 214.853707 165.048195 
L 219.635709 159.992601 
L 224.512441 154.909894 
L 229.485778 149.788879 
L 234.557636 144.628898 
L 239.729966 139.430437 
L 245.004757 134.193981 
L 250.38404 128.920018 
L 255.869885 123.609031 
L 261.464402 118.261507 
L 267.169745 112.877931 
L 272.988109 107.458789 
L 278.921732 102.004566 
L 284.972898 96.515749 
L 291.143936 90.992823 
L 297.437219 85.436273 
L 303.855171 79.846586 
L 310.400259 74.224246 
L 317.075004 68.56974 
L 323.881973 62.883552 
L 330.823785 57.16617 
L 337.903112 51.418078 
L 345.122678 45.639762 
L 352.485262 39.831708 
L 359.993695 33.994401 
L 367.650867 28.128327 
L 375.459726 22.233972 
L 383.423275 16.311821 
L 391.544579 10.36236 
L 399.826763 4.386074 
L 407.405472 -1 
" clip-path="url(#pc35b7114ac)" style="fill: none; stroke-dasharray: 9.6,2.4,1.5,2.4; stroke-dashoffset: 0; stroke: #e377c2; stroke-width: 1.5"/>
   </g>
   <g id="patch_3">
    <path d="M 35.28 473.76 
L 35.28 5.04 
" style="fill: none; stroke: #000000; stroke-width: 0.8; stroke-linejoin: miter; stroke-linecap: square"/>
   </g>
   <g id="patch_4">
    <path d="M 498.96 473.76 
L 498.96 5.04 
" style="fill: none; stroke: #000000; stroke-width: 0.8; stroke-linejoin: miter; stroke-linecap: square"/>
   </g>
   <g id="patch_5">
    <path d="M 35.28 473.76 
L 498.96 473.76 
" style="fill: none; stroke: #000000; stroke-width: 0.8; stroke-linejoin: miter; stroke-linecap: square"/>
   </g>
   <g id="patch_6">
    <path d="M 35.28 5.04 
L 498.96 5.04 
" style="fill: none; stroke: #000000; stroke-width: 0.8; stroke-linejoin: miter; stroke-linecap: square"/>
   </g>
   <g id="legend_1">
    <g id="patch_7">
     <path d="M 42.28 115.786875 
L 245.164375 115.786875 
Q 247.164375 115.786875 247.164375 113.786875 
L 247.164375 12.04 
Q 247.164375 10.04 245.164375 10.04 
L 42.28 10.04 
Q 40.28 10.04 40.28 12.04 
L 40.28 113.786875 
Q 40.28 115.786875 42.28 115.786875 
z
" style="fill: #ffffff; opacity: 0.8; stroke: #cccccc; stroke-linejoin: miter"/>
    </g>
    <g id="line2d_42">
     <path d="M 44.28 18.138438 
L 54.28 18.138438 
L 64.28 18.138438 
" style="fill: none; stroke: #1f77b4; stroke-width: 1.5; stroke-linecap: square"/>
    </g>
    <g id="text_20">
     <!-- VTM -->
     <g transform="translate(72.28 21.638438)scale(0.1 -0.1)">
      <defs>
       <path id="DejaVuSans-56" d="M 1831 0 
L 50 4666 
L 709 4666 
L 2188 738 
L 3669 4666 
L 4325 4666 
L 2547 0 
L 1831 0 
z
" transform="scale(0.015625)"/>
       <path id="DejaVuSans-54" d="M -19 4666 
L 3928 4666 
L 3928 4134 
L 2272 4134 
L 2272 0 
L 1638 0 
L 1638 4134 
L -19 4134 
L -19 4666 
z
" transform="scale(0.015625)"/>
       <path id="DejaVuSans-4d" d="M 628 4666 
L 1569 4666 
L 2759 1491 
L 3956 4666 
L 4897 4666 
L 4897 0 
L 4281 0 
L 4281 4097 
L 3078 897 
L 2444 897 
L 1241 4097 
L 1241 0 
L 628 0 
L 628 4666 
z
" transform="scale(0.015625)"/>
      </defs>
      <use xlink:href="#DejaVuSans-56"/>
      <use xlink:href="#DejaVuSans-54" x="68.408203"/>
      <use xlink:href="#DejaVuSans-4d" x="129.492188"/>
     </g>
    </g>
    <g id="line2d_43">
     <path d="M 44.28 32.816563 
L 54.28 32.816563 
L 64.28 32.816563 
" style="fill: none; stroke-dasharray: 1.5,2.475; stroke-dashoffset: 0; stroke: #ff7f0e; stroke-width: 1.5"/>
    </g>
    <g id="text_21">
     <!-- Liu2023TCM [30] -->
     <g transform="translate(72.28 36.316563)scale(0.1 -0.1)">
      <defs>
       <path id="DejaVuSans-4c" d="M 628 4666 
L 1259 4666 
L 1259 531 
L 3531 531 
L 3531 0 
L 628 0 
L 628 4666 
z
" transform="scale(0.015625)"/>
       <path id="DejaVuSans-75" d="M 544 1381 
L 544 3500 
L 1119 3500 
L 1119 1403 
Q 1119 906 1312 657 
Q 1506 409 1894 409 
Q 2359 409 2629 706 
Q 2900 1003 2900 1516 
L 2900 3500 
L 3475 3500 
L 3475 0 
L 2900 0 
L 2900 538 
Q 2691 219 2414 64 
Q 2138 -91 1772 -91 
Q 1169 -91 856 284 
Q 544 659 544 1381 
z
M 1991 3584 
L 1991 3584 
z
" transform="scale(0.015625)"/>
       <path id="DejaVuSans-43" d="M 4122 4306 
L 4122 3641 
Q 3803 3938 3442 4084 
Q 3081 4231 2675 4231 
Q 1875 4231 1450 3742 
Q 1025 3253 1025 2328 
Q 1025 1406 1450 917 
Q 1875 428 2675 428 
Q 3081 428 3442 575 
Q 3803 722 4122 1019 
L 4122 359 
Q 3791 134 3420 21 
Q 3050 -91 2638 -91 
Q 1578 -91 968 557 
Q 359 1206 359 2328 
Q 359 3453 968 4101 
Q 1578 4750 2638 4750 
Q 3056 4750 3426 4639 
Q 3797 4528 4122 4306 
z
" transform="scale(0.015625)"/>
       <path id="DejaVuSans-5b" d="M 550 4863 
L 1875 4863 
L 1875 4416 
L 1125 4416 
L 1125 -397 
L 1875 -397 
L 1875 -844 
L 550 -844 
L 550 4863 
z
" transform="scale(0.015625)"/>
       <path id="DejaVuSans-5d" d="M 1947 4863 
L 1947 -844 
L 622 -844 
L 622 -397 
L 1369 -397 
L 1369 4416 
L 622 4416 
L 622 4863 
L 1947 4863 
z
" transform="scale(0.015625)"/>
      </defs>
      <use xlink:href="#DejaVuSans-4c"/>
      <use xlink:href="#DejaVuSans-69" x="55.712891"/>
      <use xlink:href="#DejaVuSans-75" x="83.496094"/>
      <use xlink:href="#DejaVuSans-32" x="146.875"/>
      <use xlink:href="#DejaVuSans-30" x="210.498047"/>
      <use xlink:href="#DejaVuSans-32" x="274.121094"/>
      <use xlink:href="#DejaVuSans-33" x="337.744141"/>
      <use xlink:href="#DejaVuSans-54" x="401.367188"/>
      <use xlink:href="#DejaVuSans-43" x="456.576172"/>
      <use xlink:href="#DejaVuSans-4d" x="526.400391"/>
      <use xlink:href="#DejaVuSans-20" x="612.679688"/>
      <use xlink:href="#DejaVuSans-5b" x="644.466797"/>
      <use xlink:href="#DejaVuSans-33" x="683.480469"/>
      <use xlink:href="#DejaVuSans-30" x="747.103516"/>
      <use xlink:href="#DejaVuSans-5d" x="810.726562"/>
     </g>
    </g>
    <g id="line2d_44">
     <path d="M 44.28 47.494687 
L 54.28 47.494687 
L 64.28 47.494687 
" style="fill: none; stroke-dasharray: 1.5,2.475; stroke-dashoffset: 0; stroke: #2ca02c; stroke-width: 1.5"/>
    </g>
    <g id="text_22">
     <!-- Li2024FTIC [31] -->
     <g transform="translate(72.28 50.994687)scale(0.1 -0.1)">
      <defs>
       <path id="DejaVuSans-46" d="M 628 4666 
L 3309 4666 
L 3309 4134 
L 1259 4134 
L 1259 2759 
L 3109 2759 
L 3109 2228 
L 1259 2228 
L 1259 0 
L 628 0 
L 628 4666 
z
" transform="scale(0.015625)"/>
       <path id="DejaVuSans-49" d="M 628 4666 
L 1259 4666 
L 1259 0 
L 628 0 
L 628 4666 
z
" transform="scale(0.015625)"/>
      </defs>
      <use xlink:href="#DejaVuSans-4c"/>
      <use xlink:href="#DejaVuSans-69" x="55.712891"/>
      <use xlink:href="#DejaVuSans-32" x="83.496094"/>
      <use xlink:href="#DejaVuSans-30" x="147.119141"/>
      <use xlink:href="#DejaVuSans-32" x="210.742188"/>
      <use xlink:href="#DejaVuSans-34" x="274.365234"/>
      <use xlink:href="#DejaVuSans-46" x="337.988281"/>
      <use xlink:href="#DejaVuSans-54" x="393.757812"/>
      <use xlink:href="#DejaVuSans-49" x="454.841797"/>
      <use xlink:href="#DejaVuSans-43" x="484.333984"/>
      <use xlink:href="#DejaVuSans-20" x="554.158203"/>
      <use xlink:href="#DejaVuSans-5b" x="585.945312"/>
      <use xlink:href="#DejaVuSans-33" x="624.958984"/>
      <use xlink:href="#DejaVuSans-31" x="688.582031"/>
      <use xlink:href="#DejaVuSans-5d" x="752.205078"/>
     </g>
    </g>
    <g id="line2d_45">
     <path d="M 44.28 62.172813 
L 54.28 62.172813 
L 64.28 62.172813 
" style="fill: none; stroke-dasharray: 5.55,2.4; stroke-dashoffset: 0; stroke: #d62728; stroke-width: 1.5"/>
    </g>
    <g id="text_23">
     <!-- empirical RD w/o per-sample opt. -->
     <g transform="translate(72.28 65.672813)scale(0.1 -0.1)">
      <defs>
       <path id="DejaVuSans-6d" d="M 3328 2828 
Q 3544 3216 3844 3400 
Q 4144 3584 4550 3584 
Q 5097 3584 5394 3201 
Q 5691 2819 5691 2113 
L 5691 0 
L 5113 0 
L 5113 2094 
Q 5113 2597 4934 2840 
Q 4756 3084 4391 3084 
Q 3944 3084 3684 2787 
Q 3425 2491 3425 1978 
L 3425 0 
L 2847 0 
L 2847 2094 
Q 2847 2600 2669 2842 
Q 2491 3084 2119 3084 
Q 1678 3084 1418 2786 
Q 1159 2488 1159 1978 
L 1159 0 
L 581 0 
L 581 3500 
L 1159 3500 
L 1159 2956 
Q 1356 3278 1631 3431 
Q 1906 3584 2284 3584 
Q 2666 3584 2933 3390 
Q 3200 3197 3328 2828 
z
" transform="scale(0.015625)"/>
       <path id="DejaVuSans-63" d="M 3122 3366 
L 3122 2828 
Q 2878 2963 2633 3030 
Q 2388 3097 2138 3097 
Q 1578 3097 1268 2742 
Q 959 2388 959 1747 
Q 959 1106 1268 751 
Q 1578 397 2138 397 
Q 2388 397 2633 464 
Q 2878 531 3122 666 
L 3122 134 
Q 2881 22 2623 -34 
Q 2366 -91 2075 -91 
Q 1284 -91 818 406 
Q 353 903 353 1747 
Q 353 2603 823 3093 
Q 1294 3584 2113 3584 
Q 2378 3584 2631 3529 
Q 2884 3475 3122 3366 
z
" transform="scale(0.015625)"/>
       <path id="DejaVuSans-61" d="M 2194 1759 
Q 1497 1759 1228 1600 
Q 959 1441 959 1056 
Q 959 750 1161 570 
Q 1363 391 1709 391 
Q 2188 391 2477 730 
Q 2766 1069 2766 1631 
L 2766 1759 
L 2194 1759 
z
M 3341 1997 
L 3341 0 
L 2766 0 
L 2766 531 
Q 2569 213 2275 61 
Q 1981 -91 1556 -91 
Q 1019 -91 701 211 
Q 384 513 384 1019 
Q 384 1609 779 1909 
Q 1175 2209 1959 2209 
L 2766 2209 
L 2766 2266 
Q 2766 2663 2505 2880 
Q 2244 3097 1772 3097 
Q 1472 3097 1187 3025 
Q 903 2953 641 2809 
L 641 3341 
Q 956 3463 1253 3523 
Q 1550 3584 1831 3584 
Q 2591 3584 2966 3190 
Q 3341 2797 3341 1997 
z
" transform="scale(0.015625)"/>
       <path id="DejaVuSans-44" d="M 1259 4147 
L 1259 519 
L 2022 519 
Q 2988 519 3436 956 
Q 3884 1394 3884 2338 
Q 3884 3275 3436 3711 
Q 2988 4147 2022 4147 
L 1259 4147 
z
M 628 4666 
L 1925 4666 
Q 3281 4666 3915 4102 
Q 4550 3538 4550 2338 
Q 4550 1131 3912 565 
Q 3275 0 1925 0 
L 628 0 
L 628 4666 
z
" transform="scale(0.015625)"/>
       <path id="DejaVuSans-77" d="M 269 3500 
L 844 3500 
L 1563 769 
L 2278 3500 
L 2956 3500 
L 3675 769 
L 4391 3500 
L 4966 3500 
L 4050 0 
L 3372 0 
L 2619 2869 
L 1863 0 
L 1184 0 
L 269 3500 
z
" transform="scale(0.015625)"/>
       <path id="DejaVuSans-2f" d="M 1625 4666 
L 2156 4666 
L 531 -594 
L 0 -594 
L 1625 4666 
z
" transform="scale(0.015625)"/>
       <path id="DejaVuSans-6f" d="M 1959 3097 
Q 1497 3097 1228 2736 
Q 959 2375 959 1747 
Q 959 1119 1226 758 
Q 1494 397 1959 397 
Q 2419 397 2687 759 
Q 2956 1122 2956 1747 
Q 2956 2369 2687 2733 
Q 2419 3097 1959 3097 
z
M 1959 3584 
Q 2709 3584 3137 3096 
Q 3566 2609 3566 1747 
Q 3566 888 3137 398 
Q 2709 -91 1959 -91 
Q 1206 -91 779 398 
Q 353 888 353 1747 
Q 353 2609 779 3096 
Q 1206 3584 1959 3584 
z
" transform="scale(0.015625)"/>
       <path id="DejaVuSans-2d" d="M 313 2009 
L 1997 2009 
L 1997 1497 
L 313 1497 
L 313 2009 
z
" transform="scale(0.015625)"/>
      </defs>
      <use xlink:href="#DejaVuSans-65"/>
      <use xlink:href="#DejaVuSans-6d" x="61.523438"/>
      <use xlink:href="#DejaVuSans-70" x="158.935547"/>
      <use xlink:href="#DejaVuSans-69" x="222.412109"/>
      <use xlink:href="#DejaVuSans-72" x="250.195312"/>
      <use xlink:href="#DejaVuSans-69" x="291.308594"/>
      <use xlink:href="#DejaVuSans-63" x="319.091797"/>
      <use xlink:href="#DejaVuSans-61" x="374.072266"/>
      <use xlink:href="#DejaVuSans-6c" x="435.351562"/>
      <use xlink:href="#DejaVuSans-20" x="463.134766"/>
      <use xlink:href="#DejaVuSans-52" x="494.921875"/>
      <use xlink:href="#DejaVuSans-44" x="564.404297"/>
      <use xlink:href="#DejaVuSans-20" x="641.40625"/>
      <use xlink:href="#DejaVuSans-77" x="673.193359"/>
      <use xlink:href="#DejaVuSans-2f" x="754.980469"/>
      <use xlink:href="#DejaVuSans-6f" x="788.671875"/>
      <use xlink:href="#DejaVuSans-20" x="849.853516"/>
      <use xlink:href="#DejaVuSans-70" x="881.640625"/>
      <use xlink:href="#DejaVuSans-65" x="945.117188"/>
      <use xlink:href="#DejaVuSans-72" x="1006.640625"/>
      <use xlink:href="#DejaVuSans-2d" x="1041.378906"/>
      <use xlink:href="#DejaVuSans-73" x="1077.462891"/>
      <use xlink:href="#DejaVuSans-61" x="1129.5625"/>
      <use xlink:href="#DejaVuSans-6d" x="1190.841797"/>
      <use xlink:href="#DejaVuSans-70" x="1288.253906"/>
      <use xlink:href="#DejaVuSans-6c" x="1351.730469"/>
      <use xlink:href="#DejaVuSans-65" x="1379.513672"/>
      <use xlink:href="#DejaVuSans-20" x="1441.037109"/>
      <use xlink:href="#DejaVuSans-6f" x="1472.824219"/>
      <use xlink:href="#DejaVuSans-70" x="1534.005859"/>
      <use xlink:href="#DejaVuSans-74" x="1597.482422"/>
      <use xlink:href="#DejaVuSans-2e" x="1636.691406"/>
     </g>
    </g>
    <g id="line2d_46">
     <path d="M 44.28 76.850937 
L 54.28 76.850937 
L 64.28 76.850937 
" style="fill: none; stroke-dasharray: 9.6,2.4,1.5,2.4; stroke-dashoffset: 0; stroke: #9467bd; stroke-width: 1.5"/>
    </g>
    <g id="text_24">
     <!-- empirical RD w/ per-sample opt. -->
     <g transform="translate(72.28 80.350937)scale(0.1 -0.1)">
      <use xlink:href="#DejaVuSans-65"/>
      <use xlink:href="#DejaVuSans-6d" x="61.523438"/>
      <use xlink:href="#DejaVuSans-70" x="158.935547"/>
      <use xlink:href="#DejaVuSans-69" x="222.412109"/>
      <use xlink:href="#DejaVuSans-72" x="250.195312"/>
      <use xlink:href="#DejaVuSans-69" x="291.308594"/>
      <use xlink:href="#DejaVuSans-63" x="319.091797"/>
      <use xlink:href="#DejaVuSans-61" x="374.072266"/>
      <use xlink:href="#DejaVuSans-6c" x="435.351562"/>
      <use xlink:href="#DejaVuSans-20" x="463.134766"/>
      <use xlink:href="#DejaVuSans-52" x="494.921875"/>
      <use xlink:href="#DejaVuSans-44" x="564.404297"/>
      <use xlink:href="#DejaVuSans-20" x="641.40625"/>
      <use xlink:href="#DejaVuSans-77" x="673.193359"/>
      <use xlink:href="#DejaVuSans-2f" x="754.980469"/>
      <use xlink:href="#DejaVuSans-20" x="788.671875"/>
      <use xlink:href="#DejaVuSans-70" x="820.458984"/>
      <use xlink:href="#DejaVuSans-65" x="883.935547"/>
      <use xlink:href="#DejaVuSans-72" x="945.458984"/>
      <use xlink:href="#DejaVuSans-2d" x="980.197266"/>
      <use xlink:href="#DejaVuSans-73" x="1016.28125"/>
      <use xlink:href="#DejaVuSans-61" x="1068.380859"/>
      <use xlink:href="#DejaVuSans-6d" x="1129.660156"/>
      <use xlink:href="#DejaVuSans-70" x="1227.072266"/>
      <use xlink:href="#DejaVuSans-6c" x="1290.548828"/>
      <use xlink:href="#DejaVuSans-65" x="1318.332031"/>
      <use xlink:href="#DejaVuSans-20" x="1379.855469"/>
      <use xlink:href="#DejaVuSans-6f" x="1411.642578"/>
      <use xlink:href="#DejaVuSans-70" x="1472.824219"/>
      <use xlink:href="#DejaVuSans-74" x="1536.300781"/>
      <use xlink:href="#DejaVuSans-2e" x="1575.509766"/>
     </g>
    </g>
    <g id="line2d_47">
     <path d="M 44.28 91.529063 
L 54.28 91.529063 
L 64.28 91.529063 
" style="fill: none; stroke-dasharray: 5.55,2.4; stroke-dashoffset: 0; stroke: #8c564b; stroke-width: 1.5"/>
    </g>
    <g id="text_25">
     <!-- estimated RD w/o per-sample opt. -->
     <g transform="translate(72.28 95.029063)scale(0.1 -0.1)">
      <use xlink:href="#DejaVuSans-65"/>
      <use xlink:href="#DejaVuSans-73" x="61.523438"/>
      <use xlink:href="#DejaVuSans-74" x="113.623047"/>
      <use xlink:href="#DejaVuSans-69" x="152.832031"/>
      <use xlink:href="#DejaVuSans-6d" x="180.615234"/>
      <use xlink:href="#DejaVuSans-61" x="278.027344"/>
      <use xlink:href="#DejaVuSans-74" x="339.306641"/>
      <use xlink:href="#DejaVuSans-65" x="378.515625"/>
      <use xlink:href="#DejaVuSans-64" x="440.039062"/>
      <use xlink:href="#DejaVuSans-20" x="503.515625"/>
      <use xlink:href="#DejaVuSans-52" x="535.302734"/>
      <use xlink:href="#DejaVuSans-44" x="604.785156"/>
      <use xlink:href="#DejaVuSans-20" x="681.787109"/>
      <use xlink:href="#DejaVuSans-77" x="713.574219"/>
      <use xlink:href="#DejaVuSans-2f" x="795.361328"/>
      <use xlink:href="#DejaVuSans-6f" x="829.052734"/>
      <use xlink:href="#DejaVuSans-20" x="890.234375"/>
      <use xlink:href="#DejaVuSans-70" x="922.021484"/>
      <use xlink:href="#DejaVuSans-65" x="985.498047"/>
      <use xlink:href="#DejaVuSans-72" x="1047.021484"/>
      <use xlink:href="#DejaVuSans-2d" x="1081.759766"/>
      <use xlink:href="#DejaVuSans-73" x="1117.84375"/>
      <use xlink:href="#DejaVuSans-61" x="1169.943359"/>
      <use xlink:href="#DejaVuSans-6d" x="1231.222656"/>
      <use xlink:href="#DejaVuSans-70" x="1328.634766"/>
      <use xlink:href="#DejaVuSans-6c" x="1392.111328"/>
      <use xlink:href="#DejaVuSans-65" x="1419.894531"/>
      <use xlink:href="#DejaVuSans-20" x="1481.417969"/>
      <use xlink:href="#DejaVuSans-6f" x="1513.205078"/>
      <use xlink:href="#DejaVuSans-70" x="1574.386719"/>
      <use xlink:href="#DejaVuSans-74" x="1637.863281"/>
      <use xlink:href="#DejaVuSans-2e" x="1677.072266"/>
     </g>
    </g>
    <g id="line2d_48">
     <path d="M 44.28 106.207188 
L 54.28 106.207188 
L 64.28 106.207188 
" style="fill: none; stroke-dasharray: 9.6,2.4,1.5,2.4; stroke-dashoffset: 0; stroke: #e377c2; stroke-width: 1.5"/>
    </g>
    <g id="text_26">
     <!-- estimated RD w/ per-sample opt. -->
     <g transform="translate(72.28 109.707188)scale(0.1 -0.1)">
      <use xlink:href="#DejaVuSans-65"/>
      <use xlink:href="#DejaVuSans-73" x="61.523438"/>
      <use xlink:href="#DejaVuSans-74" x="113.623047"/>
      <use xlink:href="#DejaVuSans-69" x="152.832031"/>
      <use xlink:href="#DejaVuSans-6d" x="180.615234"/>
      <use xlink:href="#DejaVuSans-61" x="278.027344"/>
      <use xlink:href="#DejaVuSans-74" x="339.306641"/>
      <use xlink:href="#DejaVuSans-65" x="378.515625"/>
      <use xlink:href="#DejaVuSans-64" x="440.039062"/>
      <use xlink:href="#DejaVuSans-20" x="503.515625"/>
      <use xlink:href="#DejaVuSans-52" x="535.302734"/>
      <use xlink:href="#DejaVuSans-44" x="604.785156"/>
      <use xlink:href="#DejaVuSans-20" x="681.787109"/>
      <use xlink:href="#DejaVuSans-77" x="713.574219"/>
      <use xlink:href="#DejaVuSans-2f" x="795.361328"/>
      <use xlink:href="#DejaVuSans-20" x="829.052734"/>
      <use xlink:href="#DejaVuSans-70" x="860.839844"/>
      <use xlink:href="#DejaVuSans-65" x="924.316406"/>
      <use xlink:href="#DejaVuSans-72" x="985.839844"/>
      <use xlink:href="#DejaVuSans-2d" x="1020.578125"/>
      <use xlink:href="#DejaVuSans-73" x="1056.662109"/>
      <use xlink:href="#DejaVuSans-61" x="1108.761719"/>
      <use xlink:href="#DejaVuSans-6d" x="1170.041016"/>
      <use xlink:href="#DejaVuSans-70" x="1267.453125"/>
      <use xlink:href="#DejaVuSans-6c" x="1330.929688"/>
      <use xlink:href="#DejaVuSans-65" x="1358.712891"/>
      <use xlink:href="#DejaVuSans-20" x="1420.236328"/>
      <use xlink:href="#DejaVuSans-6f" x="1452.023438"/>
      <use xlink:href="#DejaVuSans-70" x="1513.205078"/>
      <use xlink:href="#DejaVuSans-74" x="1576.681641"/>
      <use xlink:href="#DejaVuSans-2e" x="1615.890625"/>
     </g>
    </g>
   </g>
  </g>
  <g id="axes_2">
   <g id="patch_8">
    <path d="M 282.24 453.6 
L 483.84 453.6 
L 483.84 252 
L 282.24 252 
z
" style="fill: #ffffff"/>
   </g>
   <g id="matplotlib.axis_3">
    <g id="xtick_9">
     <g id="line2d_49">
      <path d="M 282.24 453.6 
L 282.24 252 
" clip-path="url(#p177f772932)" style="fill: none; stroke: #b0b0b0; stroke-width: 0.8; stroke-linecap: square"/>
     </g>
     <g id="line2d_50">
      <g>
       <use xlink:href="#mdb0a5746e4" x="282.24" y="453.6" style="stroke: #000000; stroke-width: 0.8"/>
      </g>
     </g>
     <g id="text_27">
      <!-- 0.45 -->
      <g transform="translate(271.107188 465.698438)scale(0.1 -0.1)">
       <use xlink:href="#DejaVuSans-30"/>
       <use xlink:href="#DejaVuSans-2e" x="63.623047"/>
       <use xlink:href="#DejaVuSans-34" x="95.410156"/>
       <use xlink:href="#DejaVuSans-35" x="159.033203"/>
      </g>
     </g>
    </g>
    <g id="xtick_10">
     <g id="line2d_51">
      <path d="M 322.56 453.6 
L 322.56 252 
" clip-path="url(#p177f772932)" style="fill: none; stroke: #b0b0b0; stroke-width: 0.8; stroke-linecap: square"/>
     </g>
     <g id="line2d_52">
      <g>
       <use xlink:href="#mdb0a5746e4" x="322.56" y="453.6" style="stroke: #000000; stroke-width: 0.8"/>
      </g>
     </g>
     <g id="text_28">
      <!-- 0.46 -->
      <g transform="translate(311.427188 465.698438)scale(0.1 -0.1)">
       <use xlink:href="#DejaVuSans-30"/>
       <use xlink:href="#DejaVuSans-2e" x="63.623047"/>
       <use xlink:href="#DejaVuSans-34" x="95.410156"/>
       <use xlink:href="#DejaVuSans-36" x="159.033203"/>
      </g>
     </g>
    </g>
    <g id="xtick_11">
     <g id="line2d_53">
      <path d="M 362.88 453.6 
L 362.88 252 
" clip-path="url(#p177f772932)" style="fill: none; stroke: #b0b0b0; stroke-width: 0.8; stroke-linecap: square"/>
     </g>
     <g id="line2d_54">
      <g>
       <use xlink:href="#mdb0a5746e4" x="362.88" y="453.6" style="stroke: #000000; stroke-width: 0.8"/>
      </g>
     </g>
     <g id="text_29">
      <!-- 0.47 -->
      <g transform="translate(351.747188 465.698438)scale(0.1 -0.1)">
       <use xlink:href="#DejaVuSans-30"/>
       <use xlink:href="#DejaVuSans-2e" x="63.623047"/>
       <use xlink:href="#DejaVuSans-34" x="95.410156"/>
       <use xlink:href="#DejaVuSans-37" x="159.033203"/>
      </g>
     </g>
    </g>
    <g id="xtick_12">
     <g id="line2d_55">
      <path d="M 403.2 453.6 
L 403.2 252 
" clip-path="url(#p177f772932)" style="fill: none; stroke: #b0b0b0; stroke-width: 0.8; stroke-linecap: square"/>
     </g>
     <g id="line2d_56">
      <g>
       <use xlink:href="#mdb0a5746e4" x="403.2" y="453.6" style="stroke: #000000; stroke-width: 0.8"/>
      </g>
     </g>
     <g id="text_30">
      <!-- 0.48 -->
      <g transform="translate(392.067188 465.698438)scale(0.1 -0.1)">
       <use xlink:href="#DejaVuSans-30"/>
       <use xlink:href="#DejaVuSans-2e" x="63.623047"/>
       <use xlink:href="#DejaVuSans-34" x="95.410156"/>
       <use xlink:href="#DejaVuSans-38" x="159.033203"/>
      </g>
     </g>
    </g>
    <g id="xtick_13">
     <g id="line2d_57">
      <path d="M 443.52 453.6 
L 443.52 252 
" clip-path="url(#p177f772932)" style="fill: none; stroke: #b0b0b0; stroke-width: 0.8; stroke-linecap: square"/>
     </g>
     <g id="line2d_58">
      <g>
       <use xlink:href="#mdb0a5746e4" x="443.52" y="453.6" style="stroke: #000000; stroke-width: 0.8"/>
      </g>
     </g>
     <g id="text_31">
      <!-- 0.49 -->
      <g transform="translate(432.387188 465.698438)scale(0.1 -0.1)">
       <defs>
        <path id="DejaVuSans-39" d="M 703 97 
L 703 672 
Q 941 559 1184 500 
Q 1428 441 1663 441 
Q 2288 441 2617 861 
Q 2947 1281 2994 2138 
Q 2813 1869 2534 1725 
Q 2256 1581 1919 1581 
Q 1219 1581 811 2004 
Q 403 2428 403 3163 
Q 403 3881 828 4315 
Q 1253 4750 1959 4750 
Q 2769 4750 3195 4129 
Q 3622 3509 3622 2328 
Q 3622 1225 3098 567 
Q 2575 -91 1691 -91 
Q 1453 -91 1209 -44 
Q 966 3 703 97 
z
M 1959 2075 
Q 2384 2075 2632 2365 
Q 2881 2656 2881 3163 
Q 2881 3666 2632 3958 
Q 2384 4250 1959 4250 
Q 1534 4250 1286 3958 
Q 1038 3666 1038 3163 
Q 1038 2656 1286 2365 
Q 1534 2075 1959 2075 
z
" transform="scale(0.015625)"/>
       </defs>
       <use xlink:href="#DejaVuSans-30"/>
       <use xlink:href="#DejaVuSans-2e" x="63.623047"/>
       <use xlink:href="#DejaVuSans-34" x="95.410156"/>
       <use xlink:href="#DejaVuSans-39" x="159.033203"/>
      </g>
     </g>
    </g>
    <g id="xtick_14">
     <g id="line2d_59">
      <path d="M 483.84 453.6 
L 483.84 252 
" clip-path="url(#p177f772932)" style="fill: none; stroke: #b0b0b0; stroke-width: 0.8; stroke-linecap: square"/>
     </g>
     <g id="line2d_60">
      <g>
       <use xlink:href="#mdb0a5746e4" x="483.84" y="453.6" style="stroke: #000000; stroke-width: 0.8"/>
      </g>
     </g>
     <g id="text_32">
      <!-- 0.50 -->
      <g transform="translate(472.707188 465.698438)scale(0.1 -0.1)">
       <use xlink:href="#DejaVuSans-30"/>
       <use xlink:href="#DejaVuSans-2e" x="63.623047"/>
       <use xlink:href="#DejaVuSans-35" x="95.410156"/>
       <use xlink:href="#DejaVuSans-30" x="159.033203"/>
      </g>
     </g>
    </g>
   </g>
   <g id="matplotlib.axis_4">
    <g id="ytick_10">
     <g id="line2d_61">
      <path d="M 282.24 443.52 
L 483.84 443.52 
" clip-path="url(#p177f772932)" style="fill: none; stroke: #b0b0b0; stroke-width: 0.8; stroke-linecap: square"/>
     </g>
     <g id="line2d_62">
      <g>
       <use xlink:href="#m84e3980026" x="282.24" y="443.52" style="stroke: #000000; stroke-width: 0.8"/>
      </g>
     </g>
     <g id="text_33">
      <!-- 34.5 -->
      <g transform="translate(255.474375 447.319219)scale(0.1 -0.1)">
       <use xlink:href="#DejaVuSans-33"/>
       <use xlink:href="#DejaVuSans-34" x="63.623047"/>
       <use xlink:href="#DejaVuSans-2e" x="127.246094"/>
       <use xlink:href="#DejaVuSans-35" x="159.033203"/>
      </g>
     </g>
    </g>
    <g id="ytick_11">
     <g id="line2d_63">
      <path d="M 282.24 393.12 
L 483.84 393.12 
" clip-path="url(#p177f772932)" style="fill: none; stroke: #b0b0b0; stroke-width: 0.8; stroke-linecap: square"/>
     </g>
     <g id="line2d_64">
      <g>
       <use xlink:href="#m84e3980026" x="282.24" y="393.12" style="stroke: #000000; stroke-width: 0.8"/>
      </g>
     </g>
     <g id="text_34">
      <!-- 35.0 -->
      <g transform="translate(255.474375 396.919219)scale(0.1 -0.1)">
       <use xlink:href="#DejaVuSans-33"/>
       <use xlink:href="#DejaVuSans-35" x="63.623047"/>
       <use xlink:href="#DejaVuSans-2e" x="127.246094"/>
       <use xlink:href="#DejaVuSans-30" x="159.033203"/>
      </g>
     </g>
    </g>
    <g id="ytick_12">
     <g id="line2d_65">
      <path d="M 282.24 342.72 
L 483.84 342.72 
" clip-path="url(#p177f772932)" style="fill: none; stroke: #b0b0b0; stroke-width: 0.8; stroke-linecap: square"/>
     </g>
     <g id="line2d_66">
      <g>
       <use xlink:href="#m84e3980026" x="282.24" y="342.72" style="stroke: #000000; stroke-width: 0.8"/>
      </g>
     </g>
     <g id="text_35">
      <!-- 35.5 -->
      <g transform="translate(255.474375 346.519219)scale(0.1 -0.1)">
       <use xlink:href="#DejaVuSans-33"/>
       <use xlink:href="#DejaVuSans-35" x="63.623047"/>
       <use xlink:href="#DejaVuSans-2e" x="127.246094"/>
       <use xlink:href="#DejaVuSans-35" x="159.033203"/>
      </g>
     </g>
    </g>
    <g id="ytick_13">
     <g id="line2d_67">
      <path d="M 282.24 292.32 
L 483.84 292.32 
" clip-path="url(#p177f772932)" style="fill: none; stroke: #b0b0b0; stroke-width: 0.8; stroke-linecap: square"/>
     </g>
     <g id="line2d_68">
      <g>
       <use xlink:href="#m84e3980026" x="282.24" y="292.32" style="stroke: #000000; stroke-width: 0.8"/>
      </g>
     </g>
     <g id="text_36">
      <!-- 36.0 -->
      <g transform="translate(255.474375 296.119219)scale(0.1 -0.1)">
       <use xlink:href="#DejaVuSans-33"/>
       <use xlink:href="#DejaVuSans-36" x="63.623047"/>
       <use xlink:href="#DejaVuSans-2e" x="127.246094"/>
       <use xlink:href="#DejaVuSans-30" x="159.033203"/>
      </g>
     </g>
    </g>
   </g>
   <g id="line2d_69">
    <path d="M 272.074518 505 
L 303.215453 496.681048 
L 368.474622 479.56 
L 436.054166 462.166705 
L 505 444.776774 
" clip-path="url(#p177f772932)" style="fill: none; stroke: #1f77b4; stroke-width: 1.5; stroke-linecap: square"/>
   </g>
   <g id="line2d_70">
    <path d="M 95.481102 505 
L 107.76877 501.479955 
L 136.787485 493.242483 
L 166.31969 484.932961 
L 196.374471 476.548368 
L 226.961074 468.085683 
L 258.08891 459.541503 
L 289.767557 450.887231 
L 322.00676 442.112046 
L 354.81644 433.223697 
L 388.206691 424.229933 
L 422.187785 415.138504 
L 456.770179 405.957158 
L 491.964512 396.693644 
L 505 393.295142 
" clip-path="url(#p177f772932)" style="fill: none; stroke-dasharray: 1.5,2.475; stroke-dashoffset: 0; stroke: #ff7f0e; stroke-width: 1.5"/>
   </g>
   <g id="line2d_71">
    <path d="M 44.205959 505 
L 60.764213 500.063831 
L 91.185836 491.114539 
L 122.18845 482.116597 
L 153.783151 473.07163 
L 185.981247 463.981265 
L 218.794261 454.847127 
L 252.233937 445.663424 
L 286.312244 436.406012 
L 321.041376 427.074978 
L 356.433765 417.672697 
L 392.502077 408.201543 
L 429.25922 398.663888 
L 466.71835 389.062108 
L 504.892874 379.398576 
L 505 379.371802 
" clip-path="url(#p177f772932)" style="fill: none; stroke-dasharray: 1.5,2.475; stroke-dashoffset: 0; stroke: #2ca02c; stroke-width: 1.5"/>
   </g>
   <g id="line2d_72">
    <path d="M 12.122927 505 
L 25.083223 501.136195 
L 56.86549 491.791692 
L 89.296412 482.387296 
L 122.389226 472.921999 
L 156.157442 463.394793 
L 190.614844 453.804672 
L 225.775498 444.150628 
L 261.653757 434.431652 
L 298.264266 424.646738 
L 335.621971 414.794878 
L 373.742121 404.875064 
L 412.640278 394.886289 
L 452.332319 384.822924 
L 492.834447 374.661581 
L 505 371.641154 
" clip-path="url(#p177f772932)" style="fill: none; stroke-dasharray: 5.55,2.4; stroke-dashoffset: 0; stroke: #d62728; stroke-width: 1.5"/>
   </g>
   <g id="line2d_73">
    <path d="M -1 459.187971 
L 6.464559 456.934306 
L 38.0105 447.543563 
L 70.203217 438.094366 
L 103.055972 428.586152 
L 136.582296 419.018357 
L 170.796001 409.39042 
L 205.711178 399.701775 
L 241.34221 389.95186 
L 277.703775 380.140112 
L 314.810849 370.265967 
L 352.678718 360.322237 
L 391.32298 350.286358 
L 430.759553 340.157834 
L 471.004682 329.938155 
L 505 321.404747 
" clip-path="url(#p177f772932)" style="fill: none; stroke-dasharray: 9.6,2.4,1.5,2.4; stroke-dashoffset: 0; stroke: #9467bd; stroke-width: 1.5"/>
   </g>
   <g id="line2d_74">
    <path d="M -1 407.70544 
L 24.518833 399.898528 
L 55.363749 390.601588 
L 86.819843 381.261175 
L 118.899227 371.874539 
L 151.614249 362.419977 
L 184.977505 352.894125 
L 219.00184 343.297879 
L 253.700352 333.632139 
L 289.086401 323.897801 
L 325.173608 314.095764 
L 361.975868 304.226924 
L 399.507348 294.29218 
L 437.782499 284.292428 
L 476.816055 274.228568 
L 505 267.058449 
" clip-path="url(#p177f772932)" style="fill: none; stroke-dasharray: 5.55,2.4; stroke-dashoffset: 0; stroke: #8c564b; stroke-width: 1.5"/>
   </g>
   <g id="line2d_75">
    <path d="M -1 389.762459 
L 11.591709 385.874267 
L 42.172875 376.569135 
L 73.359842 367.219004 
L 105.164613 357.818729 
L 137.599424 348.347604 
L 170.676757 338.804413 
L 204.40934 329.190055 
L 238.810154 319.505428 
L 273.892435 309.75143 
L 309.669684 299.92896 
L 346.155667 290.038915 
L 383.364424 280.082194 
L 421.310274 270.059695 
L 460.007817 259.972316 
L 499.471944 249.820955 
L 505 248.41793 
" clip-path="url(#p177f772932)" style="fill: none; stroke-dasharray: 9.6,2.4,1.5,2.4; stroke-dashoffset: 0; stroke: #e377c2; stroke-width: 1.5"/>
   </g>
   <g id="patch_9">
    <path d="M 282.24 453.6 
L 282.24 252 
" style="fill: none; stroke: #000000; stroke-width: 0.8; stroke-linejoin: miter; stroke-linecap: square"/>
   </g>
   <g id="patch_10">
    <path d="M 483.84 453.6 
L 483.84 252 
" style="fill: none; stroke: #000000; stroke-width: 0.8; stroke-linejoin: miter; stroke-linecap: square"/>
   </g>
   <g id="patch_11">
    <path d="M 282.24 453.6 
L 483.84 453.6 
" style="fill: none; stroke: #000000; stroke-width: 0.8; stroke-linejoin: miter; stroke-linecap: square"/>
   </g>
   <g id="patch_12">
    <path d="M 282.24 252 
L 483.84 252 
" style="fill: none; stroke: #000000; stroke-width: 0.8; stroke-linejoin: miter; stroke-linecap: square"/>
   </g>
  </g>
 </g>
 <defs>
  <clipPath id="pc35b7114ac">
   <rect x="35.28" y="5.04" width="463.68" height="468.72"/>
  </clipPath>
  <clipPath id="p177f772932">
   <rect x="282.24" y="252" width="201.6" height="201.6"/>
  </clipPath>
 </defs>
</svg>
