<?xml version="1.0" encoding="utf-8" standalone="no"?>
<!DOCTYPE svg PUBLIC "-//W3C//DTD SVG 1.1//EN"
  "http://www.w3.org/Graphics/SVG/1.1/DTD/svg11.dtd">
<svg xmlns:xlink="http://www.w3.org/1999/xlink" width="396pt" height="237.6pt" viewBox="0 0 396 237.6" xmlns="http://www.w3.org/2000/svg" version="1.1">
 <metadata>
  <rdf:RDF xmlns:dc="http://purl.org/dc/elements/1.1/" xmlns:cc="http://creativecommons.org/ns#" xmlns:rdf="http://www.w3.org/1999/02/22-rdf-syntax-ns#">
   <cc:Work>
    <dc:type rdf:resource="http://purl.org/dc/dcmitype/StillImage"/>
    <dc:date>2024-12-02T16:49:39.623569</dc:date>
    <dc:format>image/svg+xml</dc:format>
    <dc:creator>
     <cc:Agent>
      <dc:title>Matplotlib v3.5.2, https://matplotlib.org/</dc:title>
     </cc:Agent>
    </dc:creator>
   </cc:Work>
  </rdf:RDF>
 </metadata>
 <defs>
  <style type="text/css">*{stroke-linejoin: round; stroke-linecap: butt}</style>
 </defs>
 <g id="figure_1">
  <g id="patch_1">
   <path d="M 0 237.6 
L 396 237.6 
L 396 0 
L 0 0 
z
" style="fill: #ffffff"/>
  </g>
  <g id="axes_1">
   <g id="patch_2">
    <path d="M 45.54 207.9 
L 392.04 207.9 
L 392.04 2.376 
L 45.54 2.376 
z
" style="fill: #ffffff"/>
   </g>
   <g id="matplotlib.axis_1">
    <g id="xtick_1">
     <g id="line2d_1">
      <defs>
       <path id="m82e94fc8bb" d="M 0 0 
L 0 3.5 
" style="stroke: #000000; stroke-width: 0.8"/>
      </defs>
      <g>
       <use xlink:href="#m82e94fc8bb" x="61.29" y="207.9" style="stroke: #000000; stroke-width: 0.8"/>
      </g>
     </g>
     <g id="text_1">
      <!-- −3 -->
      <g transform="translate(53.918906 222.498437)scale(0.1 -0.1)">
       <defs>
        <path id="DejaVuSans-2212" d="M 678 2272 
L 4684 2272 
L 4684 1741 
L 678 1741 
L 678 2272 
z
" transform="scale(0.015625)"/>
        <path id="DejaVuSans-33" d="M 2597 2516 
Q 3050 2419 3304 2112 
Q 3559 1806 3559 1356 
Q 3559 666 3084 287 
Q 2609 -91 1734 -91 
Q 1441 -91 1130 -33 
Q 819 25 488 141 
L 488 750 
Q 750 597 1062 519 
Q 1375 441 1716 441 
Q 2309 441 2620 675 
Q 2931 909 2931 1356 
Q 2931 1769 2642 2001 
Q 2353 2234 1838 2234 
L 1294 2234 
L 1294 2753 
L 1863 2753 
Q 2328 2753 2575 2939 
Q 2822 3125 2822 3475 
Q 2822 3834 2567 4026 
Q 2313 4219 1838 4219 
Q 1578 4219 1281 4162 
Q 984 4106 628 3988 
L 628 4550 
Q 988 4650 1302 4700 
Q 1616 4750 1894 4750 
Q 2613 4750 3031 4423 
Q 3450 4097 3450 3541 
Q 3450 3153 3228 2886 
Q 3006 2619 2597 2516 
z
" transform="scale(0.015625)"/>
       </defs>
       <use xlink:href="#DejaVuSans-2212"/>
       <use xlink:href="#DejaVuSans-33" x="83.789062"/>
      </g>
     </g>
    </g>
    <g id="xtick_2">
     <g id="line2d_2">
      <g>
       <use xlink:href="#m82e94fc8bb" x="113.79" y="207.9" style="stroke: #000000; stroke-width: 0.8"/>
      </g>
     </g>
     <g id="text_2">
      <!-- −2 -->
      <g transform="translate(106.418906 222.498437)scale(0.1 -0.1)">
       <defs>
        <path id="DejaVuSans-32" d="M 1228 531 
L 3431 531 
L 3431 0 
L 469 0 
L 469 531 
Q 828 903 1448 1529 
Q 2069 2156 2228 2338 
Q 2531 2678 2651 2914 
Q 2772 3150 2772 3378 
Q 2772 3750 2511 3984 
Q 2250 4219 1831 4219 
Q 1534 4219 1204 4116 
Q 875 4013 500 3803 
L 500 4441 
Q 881 4594 1212 4672 
Q 1544 4750 1819 4750 
Q 2544 4750 2975 4387 
Q 3406 4025 3406 3419 
Q 3406 3131 3298 2873 
Q 3191 2616 2906 2266 
Q 2828 2175 2409 1742 
Q 1991 1309 1228 531 
z
" transform="scale(0.015625)"/>
       </defs>
       <use xlink:href="#DejaVuSans-2212"/>
       <use xlink:href="#DejaVuSans-32" x="83.789062"/>
      </g>
     </g>
    </g>
    <g id="xtick_3">
     <g id="line2d_3">
      <g>
       <use xlink:href="#m82e94fc8bb" x="166.29" y="207.9" style="stroke: #000000; stroke-width: 0.8"/>
      </g>
     </g>
     <g id="text_3">
      <!-- −1 -->
      <g transform="translate(158.918906 222.498437)scale(0.1 -0.1)">
       <defs>
        <path id="DejaVuSans-31" d="M 794 531 
L 1825 531 
L 1825 4091 
L 703 3866 
L 703 4441 
L 1819 4666 
L 2450 4666 
L 2450 531 
L 3481 531 
L 3481 0 
L 794 0 
L 794 531 
z
" transform="scale(0.015625)"/>
       </defs>
       <use xlink:href="#DejaVuSans-2212"/>
       <use xlink:href="#DejaVuSans-31" x="83.789062"/>
      </g>
     </g>
    </g>
    <g id="xtick_4">
     <g id="line2d_4">
      <g>
       <use xlink:href="#m82e94fc8bb" x="218.79" y="207.9" style="stroke: #000000; stroke-width: 0.8"/>
      </g>
     </g>
     <g id="text_4">
      <!-- 0 -->
      <g transform="translate(215.60875 222.498437)scale(0.1 -0.1)">
       <defs>
        <path id="DejaVuSans-30" d="M 2034 4250 
Q 1547 4250 1301 3770 
Q 1056 3291 1056 2328 
Q 1056 1369 1301 889 
Q 1547 409 2034 409 
Q 2525 409 2770 889 
Q 3016 1369 3016 2328 
Q 3016 3291 2770 3770 
Q 2525 4250 2034 4250 
z
M 2034 4750 
Q 2819 4750 3233 4129 
Q 3647 3509 3647 2328 
Q 3647 1150 3233 529 
Q 2819 -91 2034 -91 
Q 1250 -91 836 529 
Q 422 1150 422 2328 
Q 422 3509 836 4129 
Q 1250 4750 2034 4750 
z
" transform="scale(0.015625)"/>
       </defs>
       <use xlink:href="#DejaVuSans-30"/>
      </g>
     </g>
    </g>
    <g id="xtick_5">
     <g id="line2d_5">
      <g>
       <use xlink:href="#m82e94fc8bb" x="271.29" y="207.9" style="stroke: #000000; stroke-width: 0.8"/>
      </g>
     </g>
     <g id="text_5">
      <!-- 1 -->
      <g transform="translate(268.10875 222.498437)scale(0.1 -0.1)">
       <use xlink:href="#DejaVuSans-31"/>
      </g>
     </g>
    </g>
    <g id="xtick_6">
     <g id="line2d_6">
      <g>
       <use xlink:href="#m82e94fc8bb" x="323.79" y="207.9" style="stroke: #000000; stroke-width: 0.8"/>
      </g>
     </g>
     <g id="text_6">
      <!-- 2 -->
      <g transform="translate(320.60875 222.498437)scale(0.1 -0.1)">
       <use xlink:href="#DejaVuSans-32"/>
      </g>
     </g>
    </g>
    <g id="xtick_7">
     <g id="line2d_7">
      <g>
       <use xlink:href="#m82e94fc8bb" x="376.29" y="207.9" style="stroke: #000000; stroke-width: 0.8"/>
      </g>
     </g>
     <g id="text_7">
      <!-- 3 -->
      <g transform="translate(373.10875 222.498437)scale(0.1 -0.1)">
       <use xlink:href="#DejaVuSans-33"/>
      </g>
     </g>
    </g>
    <g id="text_8">
     <!-- ${y}$ -->
     <g transform="translate(215.19 233.671875)scale(0.12 -0.12)">
      <defs>
       <path id="DejaVuSans-Oblique-79" d="M 1588 -325 
Q 1188 -997 936 -1164 
Q 684 -1331 294 -1331 
L -159 -1331 
L -63 -850 
L 269 -850 
Q 509 -850 678 -719 
Q 847 -588 1056 -206 
L 1234 128 
L 459 3500 
L 1069 3500 
L 1650 819 
L 3256 3500 
L 3859 3500 
L 1588 -325 
z
" transform="scale(0.015625)"/>
      </defs>
      <use xlink:href="#DejaVuSans-Oblique-79" transform="translate(0 0.3125)"/>
     </g>
    </g>
   </g>
   <g id="matplotlib.axis_2">
    <g id="ytick_1">
     <g id="line2d_8">
      <defs>
       <path id="meab9de8352" d="M 0 0 
L -3.5 0 
" style="stroke: #000000; stroke-width: 0.8"/>
      </defs>
      <g>
       <use xlink:href="#meab9de8352" x="45.54" y="198.558" style="stroke: #000000; stroke-width: 0.8"/>
      </g>
     </g>
     <g id="text_9">
      <!-- 0.0 -->
      <g transform="translate(22.636875 202.357219)scale(0.1 -0.1)">
       <defs>
        <path id="DejaVuSans-2e" d="M 684 794 
L 1344 794 
L 1344 0 
L 684 0 
L 684 794 
z
" transform="scale(0.015625)"/>
       </defs>
       <use xlink:href="#DejaVuSans-30"/>
       <use xlink:href="#DejaVuSans-2e" x="63.623047"/>
       <use xlink:href="#DejaVuSans-30" x="95.410156"/>
      </g>
     </g>
    </g>
    <g id="ytick_2">
     <g id="line2d_9">
      <g>
       <use xlink:href="#meab9de8352" x="45.54" y="165.441174" style="stroke: #000000; stroke-width: 0.8"/>
      </g>
     </g>
     <g id="text_10">
      <!-- 0.1 -->
      <g transform="translate(22.636875 169.240392)scale(0.1 -0.1)">
       <use xlink:href="#DejaVuSans-30"/>
       <use xlink:href="#DejaVuSans-2e" x="63.623047"/>
       <use xlink:href="#DejaVuSans-31" x="95.410156"/>
      </g>
     </g>
    </g>
    <g id="ytick_3">
     <g id="line2d_10">
      <g>
       <use xlink:href="#meab9de8352" x="45.54" y="132.324347" style="stroke: #000000; stroke-width: 0.8"/>
      </g>
     </g>
     <g id="text_11">
      <!-- 0.2 -->
      <g transform="translate(22.636875 136.123566)scale(0.1 -0.1)">
       <use xlink:href="#DejaVuSans-30"/>
       <use xlink:href="#DejaVuSans-2e" x="63.623047"/>
       <use xlink:href="#DejaVuSans-32" x="95.410156"/>
      </g>
     </g>
    </g>
    <g id="ytick_4">
     <g id="line2d_11">
      <g>
       <use xlink:href="#meab9de8352" x="45.54" y="99.207521" style="stroke: #000000; stroke-width: 0.8"/>
      </g>
     </g>
     <g id="text_12">
      <!-- 0.3 -->
      <g transform="translate(22.636875 103.00674)scale(0.1 -0.1)">
       <use xlink:href="#DejaVuSans-30"/>
       <use xlink:href="#DejaVuSans-2e" x="63.623047"/>
       <use xlink:href="#DejaVuSans-33" x="95.410156"/>
      </g>
     </g>
    </g>
    <g id="ytick_5">
     <g id="line2d_12">
      <g>
       <use xlink:href="#meab9de8352" x="45.54" y="66.090694" style="stroke: #000000; stroke-width: 0.8"/>
      </g>
     </g>
     <g id="text_13">
      <!-- 0.4 -->
      <g transform="translate(22.636875 69.889913)scale(0.1 -0.1)">
       <defs>
        <path id="DejaVuSans-34" d="M 2419 4116 
L 825 1625 
L 2419 1625 
L 2419 4116 
z
M 2253 4666 
L 3047 4666 
L 3047 1625 
L 3713 1625 
L 3713 1100 
L 3047 1100 
L 3047 0 
L 2419 0 
L 2419 1100 
L 313 1100 
L 313 1709 
L 2253 4666 
z
" transform="scale(0.015625)"/>
       </defs>
       <use xlink:href="#DejaVuSans-30"/>
       <use xlink:href="#DejaVuSans-2e" x="63.623047"/>
       <use xlink:href="#DejaVuSans-34" x="95.410156"/>
      </g>
     </g>
    </g>
    <g id="ytick_6">
     <g id="line2d_13">
      <g>
       <use xlink:href="#meab9de8352" x="45.54" y="32.973868" style="stroke: #000000; stroke-width: 0.8"/>
      </g>
     </g>
     <g id="text_14">
      <!-- 0.5 -->
      <g transform="translate(22.636875 36.773087)scale(0.1 -0.1)">
       <defs>
        <path id="DejaVuSans-35" d="M 691 4666 
L 3169 4666 
L 3169 4134 
L 1269 4134 
L 1269 2991 
Q 1406 3038 1543 3061 
Q 1681 3084 1819 3084 
Q 2600 3084 3056 2656 
Q 3513 2228 3513 1497 
Q 3513 744 3044 326 
Q 2575 -91 1722 -91 
Q 1428 -91 1123 -41 
Q 819 9 494 109 
L 494 744 
Q 775 591 1075 516 
Q 1375 441 1709 441 
Q 2250 441 2565 725 
Q 2881 1009 2881 1497 
Q 2881 1984 2565 2268 
Q 2250 2553 1709 2553 
Q 1456 2553 1204 2497 
Q 953 2441 691 2322 
L 691 4666 
z
" transform="scale(0.015625)"/>
       </defs>
       <use xlink:href="#DejaVuSans-30"/>
       <use xlink:href="#DejaVuSans-2e" x="63.623047"/>
       <use xlink:href="#DejaVuSans-35" x="95.410156"/>
      </g>
     </g>
    </g>
    <g id="text_15">
     <!-- ${f_{\beta}(y)}$ -->
     <g transform="translate(18.916875 118.338)rotate(-90)scale(0.12 -0.12)">
      <defs>
       <path id="DejaVuSans-Oblique-66" d="M 3059 4863 
L 2969 4384 
L 2419 4384 
Q 2106 4384 1964 4261 
Q 1822 4138 1753 3809 
L 1691 3500 
L 2638 3500 
L 2553 3053 
L 1606 3053 
L 1013 0 
L 434 0 
L 1031 3053 
L 481 3053 
L 563 3500 
L 1113 3500 
L 1159 3744 
Q 1278 4363 1576 4613 
Q 1875 4863 2516 4863 
L 3059 4863 
z
" transform="scale(0.015625)"/>
       <path id="DejaVuSans-Oblique-3b2" d="M 872 216 
L 572 -1331 
L -6 -1331 
L 928 3478 
Q 1206 4903 2538 4903 
Q 3888 4903 3659 3700 
Q 3503 2844 2894 2531 
Q 3713 2250 3553 1416 
Q 3272 -69 1759 -66 
Q 1097 -63 872 216 
z
M 1019 966 
Q 1259 422 1875 425 
Q 2775 425 2966 1406 
Q 3138 2288 1675 2219 
L 1778 2750 
Q 2909 2731 3106 3750 
Q 3241 4438 2509 4434 
Q 1691 4434 1503 3459 
L 1019 966 
z
" transform="scale(0.015625)"/>
       <path id="DejaVuSans-28" d="M 1984 4856 
Q 1566 4138 1362 3434 
Q 1159 2731 1159 2009 
Q 1159 1288 1364 580 
Q 1569 -128 1984 -844 
L 1484 -844 
Q 1016 -109 783 600 
Q 550 1309 550 2009 
Q 550 2706 781 3412 
Q 1013 4119 1484 4856 
L 1984 4856 
z
" transform="scale(0.015625)"/>
       <path id="DejaVuSans-29" d="M 513 4856 
L 1013 4856 
Q 1481 4119 1714 3412 
Q 1947 2706 1947 2009 
Q 1947 1309 1714 600 
Q 1481 -109 1013 -844 
L 513 -844 
Q 928 -128 1133 580 
Q 1338 1288 1338 2009 
Q 1338 2731 1133 3434 
Q 928 4138 513 4856 
z
" transform="scale(0.015625)"/>
      </defs>
      <use xlink:href="#DejaVuSans-Oblique-66" transform="translate(0 0.015625)"/>
      <use xlink:href="#DejaVuSans-Oblique-3b2" transform="translate(35.205078 -16.390625)scale(0.7)"/>
      <use xlink:href="#DejaVuSans-28" transform="translate(82.612305 0.015625)"/>
      <use xlink:href="#DejaVuSans-Oblique-79" transform="translate(121.625977 0.015625)"/>
      <use xlink:href="#DejaVuSans-29" transform="translate(180.805664 0.015625)"/>
     </g>
    </g>
   </g>
   <g id="line2d_14">
    <path d="M 61.29 183.910328 
L 78.317027 182.429579 
L 93.767477 180.865165 
L 107.326036 179.274724 
L 119.623333 177.611665 
L 130.659369 175.8959 
L 140.434144 174.156219 
L 149.262973 172.363766 
L 157.145856 170.543029 
L 164.398108 168.6396 
L 170.704414 166.763374 
L 176.38009 164.85621 
L 181.74045 162.818043 
L 186.47018 160.780244 
L 190.569279 158.786017 
L 194.353063 156.708413 
L 197.821532 154.550869 
L 200.974685 152.319914 
L 203.812523 150.026591 
L 206.335045 147.688569 
L 208.542252 145.333265 
L 210.434144 143.002381 
L 212.010721 140.758113 
L 213.587297 138.125192 
L 214.848559 135.60843 
L 216.10982 132.509624 
L 217.055766 129.525161 
L 217.686396 126.940035 
L 218.317027 123.262796 
L 218.632342 120.180839 
L 218.947658 120.180839 
L 219.578288 125.31399 
L 220.208919 128.316925 
L 221.154865 131.598092 
L 222.100811 134.151882 
L 223.362072 136.923177 
L 224.938649 139.759964 
L 226.515225 142.143027 
L 228.407117 144.593135 
L 230.614324 147.049171 
L 232.821532 149.187491 
L 235.344054 151.338696 
L 238.181892 153.471874 
L 241.335045 155.56559 
L 244.803514 157.605297 
L 248.587297 159.581401 
L 253.001712 161.625837 
L 257.731441 163.567103 
L 263.091802 165.517883 
L 269.082793 167.446455 
L 275.704414 169.329664 
L 282.956667 171.151214 
L 290.83955 172.900158 
L 299.668378 174.62766 
L 309.443153 176.309324 
L 320.163874 177.927866 
L 332.145856 179.510717 
L 345.704414 181.069778 
L 360.524234 182.547321 
L 376.29 183.910328 
L 376.29 183.910328 
" clip-path="url(#p8220bd2203)" style="fill: none; stroke: #1f77b4; stroke-width: 1.5; stroke-linecap: square"/>
   </g>
   <g id="line2d_15">
    <path d="M 61.29 190.314052 
L 69.803514 188.862697 
L 77.686396 187.291973 
L 84.938649 185.62309 
L 91.875586 183.795916 
L 98.181892 181.911797 
L 104.172883 179.899604 
L 109.848559 177.769409 
L 115.524234 175.396013 
L 120.884595 172.906179 
L 125.92964 170.318812 
L 130.659369 167.656623 
L 135.389099 164.743462 
L 140.118829 161.555669 
L 144.533243 158.309811 
L 148.947658 154.779226 
L 153.046757 151.22408 
L 157.145856 147.380231 
L 161.244955 143.224234 
L 165.344054 138.730741 
L 169.127838 134.259682 
L 172.911622 129.454489 
L 176.695405 124.29019 
L 180.479189 118.739949 
L 184.262973 112.774922 
L 188.046757 106.364113 
L 191.515225 100.06752 
L 194.983694 93.340887 
L 198.452162 86.154843 
L 201.920631 78.478011 
L 205.389099 70.276873 
L 208.857568 61.515619 
L 212.326036 52.155996 
L 215.794505 42.157135 
L 218.632342 33.470372 
L 218.947658 33.470372 
L 222.416126 44.024586 
L 225.884595 53.904058 
L 229.353063 63.151927 
L 232.821532 71.80857 
L 236.29 79.911785 
L 239.758468 87.496954 
L 243.542252 95.219713 
L 247.326036 102.405462 
L 251.10982 109.091541 
L 254.893604 115.312695 
L 258.677387 121.101255 
L 262.461171 126.4873 
L 266.244955 131.49882 
L 270.028739 136.161858 
L 274.127838 140.848295 
L 278.226937 145.182743 
L 282.326036 149.191641 
L 286.425135 152.899439 
L 290.83955 156.581621 
L 295.253964 159.966851 
L 299.668378 163.079074 
L 304.398108 166.135625 
L 309.127838 168.928849 
L 314.172883 171.643569 
L 319.217928 174.109558 
L 324.578288 176.482588 
L 330.253964 178.744643 
L 336.244955 180.881392 
L 342.551261 182.882138 
L 349.172883 184.739671 
L 356.10982 186.450031 
L 363.362072 188.012221 
L 371.244955 189.482527 
L 376.29 190.314052 
L 376.29 190.314052 
" clip-path="url(#p8220bd2203)" style="fill: none; stroke: #ff7f0e; stroke-width: 1.5; stroke-linecap: square"/>
   </g>
   <g id="line2d_16">
    <path d="M 61.29 197.542235 
L 70.434144 196.971506 
L 78.001712 196.286785 
L 84.623333 195.473294 
L 90.614324 194.514889 
L 95.974685 193.434702 
L 101.01973 192.18554 
L 105.434144 190.87424 
L 109.848559 189.326482 
L 113.947658 187.647397 
L 117.731441 185.864102 
L 121.515225 183.83075 
L 124.983694 181.724296 
L 128.452162 179.363622 
L 131.920631 176.726453 
L 135.389099 173.790074 
L 138.542252 170.841767 
L 141.695405 167.610304 
L 144.848559 164.07915 
L 148.001712 160.232569 
L 151.154865 156.056 
L 154.308018 151.536512 
L 157.776486 146.156181 
L 161.244955 140.337313 
L 164.713423 134.074286 
L 168.181892 127.367572 
L 171.965676 119.554568 
L 175.749459 111.245172 
L 179.848559 101.726398 
L 184.578288 90.166592 
L 190.569279 74.879171 
L 202.551261 44.123498 
L 206.335045 35.151151 
L 209.172883 28.966599 
L 211.38009 24.607761 
L 213.271982 21.279975 
L 214.848559 18.869678 
L 216.425135 16.880349 
L 217.686396 15.693308 
L 218.632342 15.165313 
L 218.947658 15.165313 
L 219.578288 15.472296 
L 220.524234 16.233057 
L 221.785495 17.618043 
L 223.362072 19.789013 
L 224.938649 22.341388 
L 226.830541 25.805819 
L 229.037748 30.290453 
L 231.875586 36.596786 
L 235.344054 44.899069 
L 240.073784 56.864435 
L 255.208919 95.630101 
L 259.938649 106.915219 
L 264.037748 116.150889 
L 267.821532 124.174206 
L 271.605315 131.686576 
L 275.073784 138.111357 
L 278.542252 144.091382 
L 282.010721 149.630195 
L 285.479189 154.736698 
L 288.947658 159.424094 
L 292.416126 163.708937 
L 295.884595 167.610304 
L 299.353063 171.149062 
L 302.821532 174.347247 
L 306.29 177.227524 
L 309.758468 179.812741 
L 313.226937 182.125554 
L 316.695405 184.188128 
L 320.479189 186.177979 
L 324.262973 187.922105 
L 328.362072 189.563342 
L 332.776486 191.07528 
L 337.190901 192.355434 
L 341.920631 193.504857 
L 347.280991 194.571438 
L 352.956667 195.473294 
L 359.262973 196.253048 
L 366.515225 196.922771 
L 375.028739 197.47695 
L 376.29 197.542235 
L 376.29 197.542235 
" clip-path="url(#p8220bd2203)" style="fill: none; stroke: #2ca02c; stroke-width: 1.5; stroke-linecap: square"/>
   </g>
   <g id="line2d_17">
    <path d="M 61.29 198.534942 
L 80.524234 198.376367 
L 90.299009 198.090211 
L 97.235946 197.680276 
L 102.911622 197.126822 
L 107.641351 196.445068 
L 111.74045 195.635085 
L 115.524234 194.656728 
L 118.992703 193.520865 
L 122.145856 192.25159 
L 124.983694 190.885407 
L 127.821532 189.277653 
L 130.659369 187.398406 
L 133.181892 185.475108 
L 135.704414 183.290994 
L 138.226937 180.824324 
L 140.749459 178.054008 
L 143.271982 174.960129 
L 145.794505 171.524517 
L 148.317027 167.731377 
L 150.83955 163.567943 
L 153.677387 158.430343 
L 156.515225 152.806527 
L 159.353063 146.698482 
L 162.506216 139.357906 
L 165.659369 131.464086 
L 169.127838 122.198846 
L 173.226937 110.581739 
L 178.271982 95.568197 
L 190.884595 57.702311 
L 194.353063 48.1121 
L 197.506216 40.033666 
L 200.028739 34.116091 
L 202.551261 28.763411 
L 204.758468 24.597222 
L 206.65036 21.443968 
L 208.542252 18.701288 
L 210.434144 16.389877 
L 212.010721 14.805945 
L 213.587297 13.542238 
L 215.163874 12.605527 
L 216.425135 12.095043 
L 217.686396 11.798859 
L 218.947658 11.718 
L 220.208919 11.852746 
L 221.47018 12.20263 
L 222.731441 12.766442 
L 223.992703 13.542238 
L 225.569279 14.805945 
L 227.145856 16.389877 
L 228.722432 18.285588 
L 230.614324 20.957748 
L 232.506216 24.044133 
L 234.713423 28.137526 
L 236.920631 32.722183 
L 239.443153 38.505275 
L 242.280991 45.616968 
L 245.434144 54.142035 
L 249.217928 65.02493 
L 254.893604 82.121356 
L 263.722432 108.741167 
L 268.136847 121.329036 
L 271.920631 131.464086 
L 275.389099 140.11749 
L 278.542252 147.400801 
L 281.695405 154.098319 
L 284.533243 159.613952 
L 287.371081 164.644082 
L 290.208919 169.196587 
L 292.731441 172.85398 
L 295.253964 176.15945 
L 297.776486 179.129757 
L 300.299009 181.783796 
L 302.821532 184.14199 
L 305.344054 186.225731 
L 308.181892 188.269105 
L 311.01973 190.023922 
L 313.857568 191.520691 
L 317.010721 192.91676 
L 320.163874 194.068383 
L 323.632342 195.094552 
L 327.416126 195.97432 
L 331.515225 196.699033 
L 336.244955 197.305638 
L 341.920631 197.794913 
L 348.857568 198.154522 
L 358.001712 198.392865 
L 372.506216 198.522652 
L 376.29 198.534942 
L 376.29 198.534942 
" clip-path="url(#p8220bd2203)" style="fill: none; stroke: #d62728; stroke-width: 1.5; stroke-linecap: square"/>
   </g>
   <g id="line2d_18">
    <path d="M 61.29 198.558 
L 116.154865 198.452482 
L 121.830541 198.21726 
L 125.614324 197.865578 
L 128.767477 197.3596 
L 131.29 196.748517 
L 133.497207 196.011733 
L 135.704414 195.036152 
L 137.596306 193.969141 
L 139.488198 192.650476 
L 141.38009 191.041858 
L 143.271982 189.104447 
L 145.163874 186.800155 
L 147.055766 184.093119 
L 148.947658 180.95128 
L 150.83955 177.348012 
L 152.731441 173.263698 
L 154.623333 168.687173 
L 156.830541 162.724389 
L 159.037748 156.105991 
L 161.56027 147.787224 
L 164.398108 137.573461 
L 167.551261 125.370435 
L 172.280991 106.037217 
L 178.902613 78.962978 
L 182.371081 65.756164 
L 185.208919 55.825875 
L 187.731441 47.807603 
L 189.938649 41.485967 
L 192.145856 35.85028 
L 194.037748 31.578699 
L 195.92964 27.823324 
L 197.821532 24.57477 
L 199.713423 21.815278 
L 201.29 19.871295 
L 202.866577 18.231462 
L 204.443153 16.874987 
L 206.01973 15.778772 
L 207.596306 14.917799 
L 209.488198 14.15766 
L 211.38009 13.649814 
L 213.587297 13.30956 
L 216.10982 13.153855 
L 220.83955 13.140218 
L 223.992703 13.30956 
L 226.19991 13.649814 
L 228.091802 14.15766 
L 229.983694 14.917799 
L 231.56027 15.778772 
L 233.136847 16.874987 
L 234.713423 18.231462 
L 236.29 19.871295 
L 237.866577 21.815278 
L 239.443153 24.081486 
L 241.335045 27.247083 
L 243.226937 30.9171 
L 245.118829 35.102375 
L 247.010721 39.804702 
L 249.217928 45.933136 
L 251.425135 52.724128 
L 253.947658 61.232682 
L 256.785495 71.632294 
L 260.253964 85.259545 
L 266.244955 109.956981 
L 271.29 130.342551 
L 274.443153 142.215305 
L 277.280991 152.042917 
L 279.803514 159.966557 
L 282.010721 166.213461 
L 284.217928 171.793163 
L 286.10982 176.040762 
L 288.001712 179.802588 
L 289.893604 183.095593 
L 291.785495 185.944236 
L 293.677387 188.378946 
L 295.569279 190.434496 
L 297.461171 192.148405 
L 299.353063 193.559415 
L 301.244955 194.706135 
L 303.452162 195.75962 
L 305.659369 196.55945 
L 308.181892 197.226639 
L 311.01973 197.738468 
L 314.488198 198.123688 
L 318.902613 198.377388 
L 325.83955 198.519419 
L 342.551261 198.557621 
L 376.29 198.558 
L 376.29 198.558 
" clip-path="url(#p8220bd2203)" style="fill: none; stroke: #9467bd; stroke-width: 1.5; stroke-linecap: square"/>
   </g>
   <g id="line2d_19">
    <path d="M 61.29 198.558 
L 148.947658 198.446976 
L 150.524234 198.22804 
L 151.785495 197.84597 
L 152.731441 197.357293 
L 153.677387 196.618487 
L 154.623333 195.548009 
L 155.569279 194.057292 
L 156.515225 192.056765 
L 157.461171 189.463074 
L 158.407117 186.206614 
L 159.353063 182.238424 
L 160.614324 175.804836 
L 161.875586 168.095037 
L 163.452162 156.851926 
L 165.344054 141.557042 
L 172.280991 83.202063 
L 174.172883 70.043801 
L 175.749459 60.549124 
L 177.326036 52.421866 
L 178.902613 45.610901 
L 180.163874 41.042305 
L 181.425135 37.184258 
L 182.686396 33.963301 
L 183.947658 31.304045 
L 185.208919 29.132571 
L 186.47018 27.378821 
L 187.731441 25.978152 
L 188.992703 24.87221 
L 190.569279 23.826129 
L 192.145856 23.073849 
L 194.037748 22.459766 
L 196.244955 22.02157 
L 199.082793 21.731306 
L 203.181892 21.581843 
L 212.641351 21.545564 
L 236.920631 21.64918 
L 240.389099 21.898291 
L 242.911622 22.308987 
L 244.803514 22.838784 
L 246.38009 23.494273 
L 247.956667 24.413346 
L 249.217928 25.391728 
L 250.479189 26.638152 
L 251.74045 28.207661 
L 253.001712 30.161826 
L 254.262973 32.568148 
L 255.524234 35.498855 
L 256.785495 39.028962 
L 258.046757 43.233384 
L 259.308018 48.182995 
L 260.569279 53.939495 
L 262.145856 62.338194 
L 263.722432 72.10632 
L 265.299009 83.202063 
L 267.190901 98.057287 
L 270.028739 122.405186 
L 273.497207 151.934963 
L 275.389099 165.980192 
L 276.965676 175.804836 
L 278.226937 182.238424 
L 279.488198 187.369255 
L 280.434144 190.398205 
L 281.38009 192.78561 
L 282.326036 194.606476 
L 283.271982 195.94707 
L 284.217928 196.897388 
L 285.163874 197.544245 
L 286.425135 198.068052 
L 287.686396 198.340736 
L 289.578288 198.5044 
L 293.677387 198.556929 
L 376.29 198.558 
L 376.29 198.558 
" clip-path="url(#p8220bd2203)" style="fill: none; stroke: #8c564b; stroke-width: 1.5; stroke-linecap: square"/>
   </g>
   <g id="patch_3">
    <path d="M 45.54 207.9 
L 45.54 2.376 
" style="fill: none; stroke: #000000; stroke-width: 0.8; stroke-linejoin: miter; stroke-linecap: square"/>
   </g>
   <g id="patch_4">
    <path d="M 392.04 207.9 
L 392.04 2.376 
" style="fill: none; stroke: #000000; stroke-width: 0.8; stroke-linejoin: miter; stroke-linecap: square"/>
   </g>
   <g id="patch_5">
    <path d="M 45.54 207.9 
L 392.04 207.9 
" style="fill: none; stroke: #000000; stroke-width: 0.8; stroke-linejoin: miter; stroke-linecap: square"/>
   </g>
   <g id="patch_6">
    <path d="M 45.54 2.376 
L 392.04 2.376 
" style="fill: none; stroke: #000000; stroke-width: 0.8; stroke-linejoin: miter; stroke-linecap: square"/>
   </g>
   <g id="legend_1">
    <g id="patch_7">
     <path d="M 318.44 99.176 
L 385.04 99.176 
Q 387.04 99.176 387.04 97.176 
L 387.04 9.376 
Q 387.04 7.376 385.04 7.376 
L 318.44 7.376 
Q 316.44 7.376 316.44 9.376 
L 316.44 97.176 
Q 316.44 99.176 318.44 99.176 
z
" style="fill: #ffffff; opacity: 0.8; stroke: #cccccc; stroke-linejoin: miter"/>
    </g>
    <g id="line2d_20">
     <path d="M 320.44 15.576 
L 330.44 15.576 
L 340.44 15.576 
" style="fill: none; stroke: #1f77b4; stroke-width: 1.5; stroke-linecap: square"/>
    </g>
    <g id="text_16">
     <!-- ${\beta=}$0.5 -->
     <g transform="translate(348.44 19.076)scale(0.1 -0.1)">
      <defs>
       <path id="DejaVuSans-3d" d="M 678 2906 
L 4684 2906 
L 4684 2381 
L 678 2381 
L 678 2906 
z
M 678 1631 
L 4684 1631 
L 4684 1100 
L 678 1100 
L 678 1631 
z
" transform="scale(0.015625)"/>
      </defs>
      <use xlink:href="#DejaVuSans-Oblique-3b2" transform="translate(0 0.390625)"/>
      <use xlink:href="#DejaVuSans-3d" transform="translate(83.300781 0.390625)"/>
      <use xlink:href="#DejaVuSans-30" transform="translate(186.572266 0.390625)"/>
      <use xlink:href="#DejaVuSans-2e" transform="translate(250.195312 0.390625)"/>
      <use xlink:href="#DejaVuSans-35" transform="translate(281.982422 0.390625)"/>
     </g>
    </g>
    <g id="line2d_21">
     <path d="M 320.44 30.376 
L 330.44 30.376 
L 340.44 30.376 
" style="fill: none; stroke: #ff7f0e; stroke-width: 1.5; stroke-linecap: square"/>
    </g>
    <g id="text_17">
     <!-- ${\beta=}$1 -->
     <g transform="translate(348.44 33.876)scale(0.1 -0.1)">
      <use xlink:href="#DejaVuSans-Oblique-3b2" transform="translate(0 0.390625)"/>
      <use xlink:href="#DejaVuSans-3d" transform="translate(83.300781 0.390625)"/>
      <use xlink:href="#DejaVuSans-31" transform="translate(186.572266 0.390625)"/>
     </g>
    </g>
    <g id="line2d_22">
     <path d="M 320.44 45.176 
L 330.44 45.176 
L 340.44 45.176 
" style="fill: none; stroke: #2ca02c; stroke-width: 1.5; stroke-linecap: square"/>
    </g>
    <g id="text_18">
     <!-- ${\beta=}$1.5 -->
     <g transform="translate(348.44 48.676)scale(0.1 -0.1)">
      <use xlink:href="#DejaVuSans-Oblique-3b2" transform="translate(0 0.390625)"/>
      <use xlink:href="#DejaVuSans-3d" transform="translate(83.300781 0.390625)"/>
      <use xlink:href="#DejaVuSans-31" transform="translate(186.572266 0.390625)"/>
      <use xlink:href="#DejaVuSans-2e" transform="translate(250.195312 0.390625)"/>
      <use xlink:href="#DejaVuSans-35" transform="translate(281.982422 0.390625)"/>
     </g>
    </g>
    <g id="line2d_23">
     <path d="M 320.44 59.976 
L 330.44 59.976 
L 340.44 59.976 
" style="fill: none; stroke: #d62728; stroke-width: 1.5; stroke-linecap: square"/>
    </g>
    <g id="text_19">
     <!-- ${\beta=}$2 -->
     <g transform="translate(348.44 63.476)scale(0.1 -0.1)">
      <use xlink:href="#DejaVuSans-Oblique-3b2" transform="translate(0 0.390625)"/>
      <use xlink:href="#DejaVuSans-3d" transform="translate(83.300781 0.390625)"/>
      <use xlink:href="#DejaVuSans-32" transform="translate(186.572266 0.390625)"/>
     </g>
    </g>
    <g id="line2d_24">
     <path d="M 320.44 74.776 
L 330.44 74.776 
L 340.44 74.776 
" style="fill: none; stroke: #9467bd; stroke-width: 1.5; stroke-linecap: square"/>
    </g>
    <g id="text_20">
     <!-- ${\beta=}$3 -->
     <g transform="translate(348.44 78.276)scale(0.1 -0.1)">
      <use xlink:href="#DejaVuSans-Oblique-3b2" transform="translate(0 0.390625)"/>
      <use xlink:href="#DejaVuSans-3d" transform="translate(83.300781 0.390625)"/>
      <use xlink:href="#DejaVuSans-33" transform="translate(186.572266 0.390625)"/>
     </g>
    </g>
    <g id="line2d_25">
     <path d="M 320.44 89.576 
L 330.44 89.576 
L 340.44 89.576 
" style="fill: none; stroke: #8c564b; stroke-width: 1.5; stroke-linecap: square"/>
    </g>
    <g id="text_21">
     <!-- ${\beta=}$7 -->
     <g transform="translate(348.44 93.076)scale(0.1 -0.1)">
      <defs>
       <path id="DejaVuSans-37" d="M 525 4666 
L 3525 4666 
L 3525 4397 
L 1831 0 
L 1172 0 
L 2766 4134 
L 525 4134 
L 525 4666 
z
" transform="scale(0.015625)"/>
      </defs>
      <use xlink:href="#DejaVuSans-Oblique-3b2" transform="translate(0 0.390625)"/>
      <use xlink:href="#DejaVuSans-3d" transform="translate(83.300781 0.390625)"/>
      <use xlink:href="#DejaVuSans-37" transform="translate(186.572266 0.390625)"/>
     </g>
    </g>
   </g>
  </g>
 </g>
 <defs>
  <clipPath id="p8220bd2203">
   <rect x="45.54" y="2.376" width="346.5" height="205.524"/>
  </clipPath>
 </defs>
</svg>
